<svg xmlns="http://www.w3.org/2000/svg" width="20" height="20" viewBox="0 0 20 20">
  <g id="그룹_10534" data-name="그룹 10534" transform="translate(-10212 -7944)">
    <rect id="사각형_4288" data-name="사각형 4288" width="20" height="20" transform="translate(10212 7944)" fill="none"/>
    <path id="패스_5066" data-name="패스 5066" d="M12.189,12.5H.811A.306.306,0,0,1,.5,12.2v-.837c0-2.109,1.73-3.95,4.162-4.581A3.364,3.364,0,0,1,2.994,3.892,3.454,3.454,0,0,1,6.5.5a3.454,3.454,0,0,1,3.506,3.392A3.363,3.363,0,0,1,8.339,6.78c2.433.631,4.161,2.472,4.161,4.581V12.2A.306.306,0,0,1,12.189,12.5Z" transform="translate(10216 7948)" fill="none" stroke="#113e62" stroke-linecap="round" stroke-linejoin="round" stroke-width="1.5"/>
  </g>
</svg>
