<svg xmlns="http://www.w3.org/2000/svg" xmlns:xlink="http://www.w3.org/1999/xlink" width="510" height="182" viewBox="0 0 510 182">
  <defs>
    <clipPath id="clip-path">
      <rect id="사각형_4418" data-name="사각형 4418" width="509.913" height="181.29" fill="none"/>
    </clipPath>
  </defs>
  <g id="그룹_10695" data-name="그룹 10695" transform="translate(-10320 -2986)">
    <rect id="사각형_4481" data-name="사각형 4481" width="510" height="182" transform="translate(10320 2986)" fill="none"/>
    <g id="그룹_10658" data-name="그룹 10658" transform="translate(10320 2986)" clip-path="url(#clip-path)">
      <path id="패스_5683" data-name="패스 5683" d="M29.866,83.816a11.456,11.456,0,0,1-5.011,4.507A17.129,17.129,0,0,1,17.4,89.859a17.421,17.421,0,0,1-7.527-1.536,11.577,11.577,0,0,1-5.061-4.507A13.462,13.462,0,0,1,3,76.666V52.7h8.51V76.666q0,3.375,1.461,4.884a5.9,5.9,0,0,0,4.43,1.511,5.672,5.672,0,0,0,4.306-1.511q1.434-1.511,1.434-4.884V52.7h8.51V76.666a13.621,13.621,0,0,1-1.787,7.15" fill="#135495"/>
      <path id="패스_5684" data-name="패스 5684" d="M56.024,77.572a5.156,5.156,0,0,0-1.938-1.586,26.7,26.7,0,0,0-4.2-1.686,27.827,27.827,0,0,1-9.039-4.558,8.74,8.74,0,0,1-3.3-7.125,8.939,8.939,0,0,1,1.762-5.488,11.26,11.26,0,0,1,4.885-3.651,18.667,18.667,0,0,1,7.15-1.284,16.908,16.908,0,0,1,7.175,1.435,11.3,11.3,0,0,1,4.809,4.028,10.5,10.5,0,0,1,1.713,5.917h-8.46a4.487,4.487,0,0,0-1.334-3.424,5.726,5.726,0,0,0-4.054-1.259,6.1,6.1,0,0,0-3.827,1.058A3.247,3.247,0,0,0,46,62.617a3.176,3.176,0,0,0,1.686,2.669A20.927,20.927,0,0,0,52.8,67.451q6.194,1.914,9.19,4.784a9.735,9.735,0,0,1,3,7.352,8.892,8.892,0,0,1-3.626,7.578q-3.625,2.694-9.869,2.694a19.78,19.78,0,0,1-7.326-1.36,12.865,12.865,0,0,1-5.59-4.129,10.862,10.862,0,0,1-2.14-6.848h8.51a5.264,5.264,0,0,0,1.662,4.356,7.666,7.666,0,0,0,4.884,1.334,5.961,5.961,0,0,0,3.776-1.007,3.2,3.2,0,0,0,1.259-2.618,3.745,3.745,0,0,0-.5-2.015" fill="#135495"/>
      <path id="패스_5685" data-name="패스 5685" d="M94.444,88.3a22.609,22.609,0,0,1-9.014,1.561,16.78,16.78,0,0,1-8.484-2.089,13.984,13.984,0,0,1-5.64-6.093,21.592,21.592,0,0,1-1.989-9.693V70.12a22.133,22.133,0,0,1,1.939-9.668,14.046,14.046,0,0,1,5.463-6.142,15.644,15.644,0,0,1,8.207-2.116q7.051,0,10.625,3.3a14.07,14.07,0,0,1,4.23,9.14H91.574a7.456,7.456,0,0,0-1.914-4.255,6.169,6.169,0,0,0-4.482-1.435,6.062,6.062,0,0,0-5.387,2.82q-1.865,2.82-1.864,8.308v1.914q0,11.078,8.007,11.078a10.468,10.468,0,0,0,3.373-.429,6.706,6.706,0,0,0,2.015-1.082V75.86H85.028V69.718h14.8V84.673A15.089,15.089,0,0,1,94.444,88.3" fill="#135495"/>
      <path id="패스_5686" data-name="패스 5686" d="M141.827,88.1H103.709V82h12.638V72.235H123.8V82h18.027Zm-3.172-31.824q0,5.591-.328,10.1a81.156,81.156,0,0,1-1.687,10.85l-7.2-.7q.754-3.523,1.309-7.654l-23.314,1.41-.906-6.5,24.724-.654.151-4.33H107.838V52.848h30.817Z" fill="#135495"/>
      <path id="패스_5687" data-name="패스 5687" d="M166.35,58.64H153.762v8.61q5.438-.1,8.912-.378a55.51,55.51,0,0,0,6.7-.932l.705,5.993a49.912,49.912,0,0,1-7.805,1.032q-4.078.227-12.085.226h-3.827V52.7H166.35Zm9.315,18.983a6.977,6.977,0,0,1,3.928,6.294q0,3.978-3.928,6.269t-10.624,2.291q-6.8,0-10.7-2.291t-3.9-6.269a6.982,6.982,0,0,1,3.9-6.294q3.9-2.267,10.7-2.266,6.7,0,10.624,2.266M159.6,81.852a2.141,2.141,0,0,0-1.663,2.065,2.214,2.214,0,0,0,1.688,2.141,23.389,23.389,0,0,0,10.876-.026,2.237,2.237,0,0,0,1.737-2.115,2.161,2.161,0,0,0-1.737-2.065,18.022,18.022,0,0,0-5.463-.6,17.459,17.459,0,0,0-5.438.6m19.838-7.15h-7.4V49.626h7.4Z" fill="#135495"/>
      <path id="패스_5688" data-name="패스 5688" d="M211.82,52.924a13.6,13.6,0,0,1,5.765,4.305,10.7,10.7,0,0,1-1.334,14.2,16.546,16.546,0,0,1-8.963,4.029V81.6H222.8v6.093H184.578V81.6h15.308V75.407a16.314,16.314,0,0,1-8.862-4,10.733,10.733,0,0,1-1.285-14.175,13.627,13.627,0,0,1,5.741-4.305,20.77,20.77,0,0,1,8.133-1.535,21.1,21.1,0,0,1,8.207,1.535m-14.477,6.093A5.172,5.172,0,0,0,195,63.575a5.285,5.285,0,0,0,2.316,4.657,11,11,0,0,0,6.3,1.586,11.224,11.224,0,0,0,6.369-1.586,5.267,5.267,0,0,0,2.341-4.657,5.158,5.158,0,0,0-2.366-4.558,11.234,11.234,0,0,0-6.344-1.587,11.008,11.008,0,0,0-6.27,1.587" fill="#135495"/>
      <path id="패스_5689" data-name="패스 5689" d="M263.131,77.069H225.013V71.077h38.118Zm-3.223-20.092h-4.733v5.741h4.33v5.791H228.639V62.718h4.279V56.977h-4.732v-5.84h31.722Zm-1.107,34.8H229.344V79.285h7.5v6.546H258.8Zm-11.129-34.8h-7.3v5.74h7.3Z" fill="#135495"/>
      <path id="패스_5690" data-name="패스 5690" d="M283.323,64.783h2.77V50.029h6.9V90.514h-6.9V70.725h-2.77v11.48H266.454v-28.5h16.869ZM273.2,76.313h3.272V59.545H273.2Zm28.752,16.114h-7.1v-42.8h7.1Z" fill="#135495"/>
      <path id="패스_5691" data-name="패스 5691" d="M327.384,59.042H315v5.791h11.985v5.74H315v6.546a108.305,108.305,0,0,0,14.452-1.107l.6,5.992a78.565,78.565,0,0,1-8.51.855q-4.33.2-10.373.2h-3.776V52.949h19.99Zm11.884,6.244h5.64V71.43h-5.64v21h-7.452v-42.8h7.452Z" fill="#135495"/>
      <path id="패스_5692" data-name="패스 5692" d="M361.072,66.8q-3.576,5.741-12.035,9.315l-3.474-5.338a21.547,21.547,0,0,0,8.308-5.236l-6.647.806-.856-5.892L356.892,60q.15-.705.352-1.863H348.08V52.144h16.567q0,8.913-3.575,14.653m21.4,25.227h-29.1V75.911h29.1Zm-21.9-5.942h14.653v-4.23H360.568Zm21.9-11.581h-7.05V64.984h-2.265v9.165h-6.9V50.432h6.9v8.56h2.265V49.677h7.05Z" fill="#135495"/>
      <path id="패스_5693" data-name="패스 5693" d="M411.022,58.841H407.5V76.566l4.33-.453.453,5.337a84.122,84.122,0,0,1-11.707,1.435q-6.069.328-13.268.327l-.655-5.992,4.029-.05V58.841h-2.921V52.849h23.263ZM400.3,76.969V58.841H397.88V77.07Zm22.156,15.458H415.1v-21.7h-5.086V64.783H415.1V49.626h7.352Z" fill="#135495"/>
      <path id="패스_5694" data-name="패스 5694" d="M465.4,87.643H427.186V81.349H465.4ZM451.357,60.729a13.56,13.56,0,0,0,4.633,5.136,20.4,20.4,0,0,0,8.408,3.1l-3.222,6.245a23.068,23.068,0,0,1-9.315-3.676,18.721,18.721,0,0,1-5.841-6.546,19.388,19.388,0,0,1-5.892,6.495,23.584,23.584,0,0,1-9.266,3.727l-3.223-6.245A19.93,19.93,0,0,0,436,65.815a13.958,13.958,0,0,0,4.631-5.186,13.279,13.279,0,0,0,1.41-5.867v-2.82h7.907v2.82a13.454,13.454,0,0,0,1.41,5.967" fill="#135495"/>
      <path id="패스_5695" data-name="패스 5695" d="M11.925,105.675l-8.584,22.32H0l8.585-22.32Z" fill="#787878"/>
      <path id="패스_5696" data-name="패스 5696" d="M21.883,105.675,13.3,127.995H9.958l8.585-22.32Z" fill="#787878"/>
      <path id="패스_5697" data-name="패스 5697" d="M43.361,119H40.176v-2.778h-5.9v-2.716h5.9v-2.686H34.557a12.229,12.229,0,0,1-3.886,5.245,19.045,19.045,0,0,1-6.821,3.309l-1.312-2.653a16.229,16.229,0,0,0,6.681-3.34,8.1,8.1,0,0,0,2.747-5.058H23.912v-2.716h11.52a16.606,16.606,0,0,1-.188,2.529h4.932V103.8h3.185Zm-3.856.858a6.737,6.737,0,0,1,2.966,1.811,4.011,4.011,0,0,1,1.046,2.763,4.109,4.109,0,0,1-1.046,2.809,6.657,6.657,0,0,1-2.966,1.826,14.084,14.084,0,0,1-4.448.64,11.789,11.789,0,0,1-6.212-1.42,4.343,4.343,0,0,1-2.311-3.855,4.011,4.011,0,0,1,1.046-2.763,6.74,6.74,0,0,1,2.982-1.811,14.342,14.342,0,0,1,4.495-.64,14.084,14.084,0,0,1,4.448.64m-8.413,2.685a1.983,1.983,0,0,0,0,3.793,9.619,9.619,0,0,0,3.965.655,9.338,9.338,0,0,0,3.871-.655,1.983,1.983,0,0,0,0-3.793,9.151,9.151,0,0,0-3.871-.671,9.426,9.426,0,0,0-3.965.671" fill="#787878"/>
      <path id="패스_5698" data-name="패스 5698" d="M50.258,114.228A60.34,60.34,0,0,0,60.4,113.136l.375,2.778a60.44,60.44,0,0,1-11.613,1.093H47.011V105.082h3.247Zm15.515,15.265H49.509v-9.8H65.773Zm-13.111-2.685H62.715v-4.495H52.662Zm13.111-17.356h3.5V112.2h-3.5v6.337H62.621V103.8h3.152Z" fill="#787878"/>
      <path id="패스_5699" data-name="패스 5699" d="M98.363,121.065H92.837v8.772H89.559v-8.772H84.127v8.772H80.881v-8.772H75.418v-2.716H98.363Zm-6.806-15.609a7.328,7.328,0,0,1,3.2,2.03,4.674,4.674,0,0,1,0,6.118,7.192,7.192,0,0,1-3.2,2.014,16.156,16.156,0,0,1-9.428,0,7.2,7.2,0,0,1-3.2-2.014,4.674,4.674,0,0,1,0-6.118,7.336,7.336,0,0,1,3.2-2.03,15.855,15.855,0,0,1,9.428,0m-8.911,2.81a2.453,2.453,0,0,0,0,4.558,9.08,9.08,0,0,0,4.2.811,9.177,9.177,0,0,0,4.231-.811,2.453,2.453,0,0,0,0-4.558,9.189,9.189,0,0,0-4.231-.812,9.092,9.092,0,0,0-4.2.812" fill="#787878"/>
      <path id="패스_5700" data-name="패스 5700" d="M109.6,105.378a5.913,5.913,0,0,1,2.388,2.107,5.876,5.876,0,0,1,0,6.118,5.794,5.794,0,0,1-2.373,2.092,8.137,8.137,0,0,1-6.82,0,5.875,5.875,0,0,1-2.4-2.092,5.79,5.79,0,0,1,0-6.118,6.012,6.012,0,0,1,2.4-2.107,7.949,7.949,0,0,1,6.805,0m-5.978,2.888a2.846,2.846,0,0,0-.983,2.279,2.891,2.891,0,0,0,.983,2.294,4.293,4.293,0,0,0,5.15,0,2.892,2.892,0,0,0,.984-2.294,2.847,2.847,0,0,0-.984-2.279,4.354,4.354,0,0,0-5.15,0m16.4,16.669H106.48v1.9h14.234v2.653H103.389v-7.086h13.424v-1.779H103.295v-2.653h16.732Zm0-8.022h-3.246V103.8h3.246Z" fill="#787878"/>
      <path id="패스_5701" data-name="패스 5701" d="M124.834,124.873a1.924,1.924,0,0,1,1.468-.561,2.024,2.024,0,0,1,1.326.421,1.948,1.948,0,0,1,.672,1.108,3.922,3.922,0,0,1,.155,1.03,4.67,4.67,0,0,1-.624,2.217,6.029,6.029,0,0,1-1.2,1.56,5.9,5.9,0,0,1-1.451,1.031l-.874-1a4.2,4.2,0,0,0,1.654-2.341l.063-.188a1.9,1.9,0,0,1-1.265-.609,1.845,1.845,0,0,1-.452-1.264,1.966,1.966,0,0,1,.53-1.4" fill="#787878"/>
      <path id="패스_5702" data-name="패스 5702" d="M159.3,126.683H136.447V123.9h8.367v-6.4H148v6.4h11.3Zm-2.372-18.23q0,3.372-.187,6.025a49.526,49.526,0,0,1-.937,6.306l-3.122-.344a50.522,50.522,0,0,0,.843-5.494l-14.766.874-.436-2.934,15.389-.562q.063-1.311.063-3.527H139.1v-2.716h17.825Z" fill="#787878"/>
      <path id="패스_5703" data-name="패스 5703" d="M173.5,108.484H164.73v6.493q3.807-.03,6.227-.218a34.308,34.308,0,0,0,4.7-.687l.344,2.747a35.669,35.669,0,0,1-5.12.7q-2.622.174-7.18.172h-2.154V105.8H173.5Zm5.292,12.488a4.2,4.2,0,0,1,0,7.491,15.441,15.441,0,0,1-12.6,0,4.217,4.217,0,0,1,0-7.491,15.441,15.441,0,0,1,12.6,0m-10.27,1.95a1.946,1.946,0,0,0-1.39,1.8,2,2,0,0,0,1.39,1.826,9.789,9.789,0,0,0,3.979.639,9.919,9.919,0,0,0,4-.639,2,2,0,0,0,1.4-1.826,1.946,1.946,0,0,0-1.388-1.8,10.383,10.383,0,0,0-4.012-.609,10.259,10.259,0,0,0-3.979.609m12.5-3.418h-3.246V103.8h3.246Z" fill="#787878"/>
      <path id="패스_5704" data-name="패스 5704" d="M206.654,126.591H183.71v-2.779h22.944Zm-6.744-20.4a8.012,8.012,0,0,1,3.388,2.592,6.322,6.322,0,0,1,1.233,3.854,6.462,6.462,0,0,1-1.233,3.887,7.9,7.9,0,0,1-3.388,2.622,12.024,12.024,0,0,1-4.776.922,11.723,11.723,0,0,1-4.714-.922,7.924,7.924,0,0,1-3.355-2.622,6.456,6.456,0,0,1-1.234-3.887,6.316,6.316,0,0,1,1.234-3.854,8.038,8.038,0,0,1,3.355-2.592,11.74,11.74,0,0,1,4.714-.921,12.041,12.041,0,0,1,4.776.921m-9.271,3.075a3.986,3.986,0,0,0-1.748,3.371,3.932,3.932,0,0,0,1.748,3.372,8.8,8.8,0,0,0,9.037,0,4.151,4.151,0,0,0-.016-6.759,7.543,7.543,0,0,0-4.526-1.264,7.426,7.426,0,0,0-4.495,1.28" fill="#787878"/>
      <path id="패스_5705" data-name="패스 5705" d="M230.284,126.84H207.34v-2.778h9.833v-4.089h-7.118v-8.585h14.329V108.3h-14.36V105.55H227.6v8.46h-14.36v3.216h14.922v2.747h-7.8v4.089h9.927Z" fill="#787878"/>
      <path id="패스_5706" data-name="패스 5706" d="M246.781,106.611a6.716,6.716,0,0,1,2.2,2.685h5.743V103.8h3.153v26.066h-3.153v-9.8h-5.556a7.155,7.155,0,0,1-2.232,3.012,5.4,5.4,0,0,1-6.556-.062,7.5,7.5,0,0,1-2.279-3.231,14.752,14.752,0,0,1,0-9.74,7.508,7.508,0,0,1,2.279-3.231,5.468,5.468,0,0,1,6.4-.2m-5.557,3.762a11.66,11.66,0,0,0,0,9.084,2.776,2.776,0,0,0,2.482,1.639,2.811,2.811,0,0,0,2.5-1.639,11.488,11.488,0,0,0,0-9.084,2.811,2.811,0,0,0-2.5-1.639,2.776,2.776,0,0,0-2.482,1.639m8.881,4.542a14.936,14.936,0,0,1-.186,2.435h4.806v-5.338h-4.869a16.966,16.966,0,0,1,.249,2.9" fill="#787878"/>
      <path id="패스_5707" data-name="패스 5707" d="M283.383,119.348H260.439v-2.653h22.944Zm-2.435,9.865H263.154V121.5H266.4v5.027h14.548Zm-.125-15.453H263.372v-9.021h3.216v6.336h14.235Z" fill="#787878"/>
      <path id="패스_5708" data-name="패스 5708" d="M303.642,108.921h-8.9v11.863q3.747-.03,6.072-.187a40.076,40.076,0,0,0,4.667-.593l.282,2.778a40.023,40.023,0,0,1-5.2.671q-2.669.171-6.882.172h-2.155V106.142h12.113Zm7.242,20.947h-3.246V103.8h3.246Z" fill="#787878"/>
      <path id="패스_5709" data-name="패스 5709" d="M323.886,115.4a11.6,11.6,0,0,0,2.216,3.715,9.487,9.487,0,0,0,3.449,2.482l-1.779,2.653a10.326,10.326,0,0,1-3.747-2.888,14.13,14.13,0,0,1-2.465-4.448,16.21,16.21,0,0,1-2.513,4.839,10.7,10.7,0,0,1-3.762,3.152l-1.842-2.653a9.749,9.749,0,0,0,3.4-2.685,12.832,12.832,0,0,0,2.232-3.98,13.377,13.377,0,0,0,.765-4.417V109.14H314.38v-2.748h14.173v2.748H323.12v2.029a12.125,12.125,0,0,0,.766,4.23m10.6,14.438h-3.246V103.8h3.246Z" fill="#787878"/>
      <path id="패스_5710" data-name="패스 5710" d="M350,107.984h-8.336v1.842h7.617v2.529h-7.617v2q3.123,0,5.2-.109t4.168-.422l.25,2.684a43.223,43.223,0,0,1-4.575.438q-2.264.093-6.321.094h-1.936V105.3H350Zm8.272,17.326h-13.3v1.654h14.08v2.654H341.757v-6.774h13.36v-1.561H341.725V118.6h16.546Zm0-7.617h-3.154v-5.557H350.84v-2.653h4.277V103.8h3.154Z" fill="#787878"/>
      <path id="패스_5711" data-name="패스 5711" d="M380.777,108.829H366.76v-2.655h5.588v-2.591H375.5v2.591h5.276Zm-3.856,1.623a5,5,0,0,1,2.123,1.763,4.523,4.523,0,0,1,.765,2.575,4.448,4.448,0,0,1-.765,2.56,5.157,5.157,0,0,1-2.123,1.765,7.058,7.058,0,0,1-3.044.639,6.715,6.715,0,0,1-2.95-.639,5.2,5.2,0,0,1-2.092-1.765,4.447,4.447,0,0,1-.764-2.56,4.522,4.522,0,0,1,.764-2.575,5.062,5.062,0,0,1,2.077-1.763,6.815,6.815,0,0,1,2.965-.625,7.2,7.2,0,0,1,3.044.625m10.849,19.385h-3.217v-5.556H370.662v-2.716H387.77Zm-15.953-16.8a2.332,2.332,0,0,0,0,3.481,3.046,3.046,0,0,0,2.06.672,3.236,3.236,0,0,0,2.108-.672,2.243,2.243,0,0,0,0-3.481,3.3,3.3,0,0,0-2.108-.655,3.1,3.1,0,0,0-2.06.655m15.953,7.305h-3.217v-2.872h-3.621v-2.747h3.621v-2.247h-3.59V109.8h3.59V103.8h3.217Z" fill="#787878"/>
      <path id="패스_5712" data-name="패스 5712" d="M401.317,112.886a8.621,8.621,0,0,0,4.5,3.278l-1.685,2.653a9.764,9.764,0,0,1-3.59-2.216,10.923,10.923,0,0,1-2.373-3.465,11.439,11.439,0,0,1-2.435,3.746,9.808,9.808,0,0,1-3.714,2.372L390.3,116.6a8.9,8.9,0,0,0,4.6-3.481,9.361,9.361,0,0,0,1.608-5.291v-2.56h3.247v2.56a8.745,8.745,0,0,0,1.56,5.057m10.645,16.452H394.637v-8.366h3.184v5.649h14.141Zm-.687-6.463H408.06V103.8h3.215Z" fill="#787878"/>
      <path id="패스_5713" data-name="패스 5713" d="M422.653,121.533a70.845,70.845,0,0,0,7.6-.686l.25,2.465a51.282,51.282,0,0,1-7.508.953q-3.825.2-8.507.2l-.406-2.779q4.558,0,8.569-.156m3-15.141a6.229,6.229,0,0,1,2.482,2.264,6.36,6.36,0,0,1,0,6.54,6.255,6.255,0,0,1-2.482,2.247,8.066,8.066,0,0,1-7.054,0,6.361,6.361,0,0,1-2.5-2.247,6.266,6.266,0,0,1,0-6.54,6.316,6.316,0,0,1,2.513-2.264,7.655,7.655,0,0,1,3.528-.811,7.553,7.553,0,0,1,3.511.811m-6.227,3.044a3.12,3.12,0,0,0-1.062,2.482,3.166,3.166,0,0,0,1.062,2.5,4.407,4.407,0,0,0,5.431,0,3.17,3.17,0,0,0,1.062-2.5,3.131,3.131,0,0,0-1.062-2.466,3.953,3.953,0,0,0-2.715-.936,4,4,0,0,0-2.716.92m15.514,20.432h-3.215V103.8h3.215Z" fill="#787878"/>
      <path id="패스_5714" data-name="패스 5714" d="M453.869,113.151q-2.949,3.075-8.881,4.355l-1.124-2.716q8.772-1.748,9.428-7.211h-8.085v-2.716h11.612a11.468,11.468,0,0,1-2.95,8.288M464.436,124.9H450.982v2h14.141v2.685H447.8v-7.18H461.19v-1.779H447.7v-2.622h16.732Zm0-7.928H461.19V103.8h3.246Z" fill="#787878"/>
      <path id="패스_5715" data-name="패스 5715" d="M193.331,39.363l-.707-.707,31.7-31.7h68.516v1h-68.1Z"/>
      <path id="패스_5716" data-name="패스 5716" d="M312.876,2.42H310.7V5.48h2.08V7.16h-4.86V8.78h6.28V10.5H299.557V8.78h6.279V7.16h-4.859V5.48h2.08V2.42h-2.181V.68h12Zm-.319,13.94h-11.2V11.64h2.079v2.98h9.121Zm-3.92-13.94H305.1V5.481h3.54Z"/>
      <path id="패스_5717" data-name="패스 5717" d="M329.4,14.679H314.7V12.9h14.7Zm-1.62-4.279h-11.3V1.3h11.181v1.76h-9.08v1.9h8.7V6.679h-8.7v2h9.2Z"/>
      <path id="패스_5718" data-name="패스 5718" d="M332.436,3.98a1.231,1.231,0,0,1,.94-.36,1.269,1.269,0,0,1,.951.36,1.24,1.24,0,0,1,.349.9,1.167,1.167,0,0,1-.34.861,1.3,1.3,0,0,1-.96.34,1.274,1.274,0,0,1-.94-.34,1.167,1.167,0,0,1-.34-.861,1.254,1.254,0,0,1,.34-.9m0,6.84a1.231,1.231,0,0,1,.94-.36,1.269,1.269,0,0,1,.951.36,1.242,1.242,0,0,1,.349.9,1.167,1.167,0,0,1-.34.861,1.3,1.3,0,0,1-.96.34,1.274,1.274,0,0,1-.94-.34,1.167,1.167,0,0,1-.34-.861,1.256,1.256,0,0,1,.34-.9"/>
      <path id="패스_5719" data-name="패스 5719" d="M355.876,14.68h-14.7V12.861h14.7Zm-1.261-11.4H352.3V8.46h2.26v1.7h-12.12V8.46h2.24V3.28h-2.3V1.52h12.239Zm-4.359,0h-3.54V8.46h3.54Z"/>
      <path id="패스_5720" data-name="패스 5720" d="M364.755,7.78h-5.48V11q2.06-.019,3.741-.14a31.8,31.8,0,0,0,3.439-.44l.16,1.76a32.9,32.9,0,0,1-3.71.46q-1.828.12-4.29.12H357.2V6.06h5.46V3.2h-5.48V1.44h7.58Zm4.98,8.92h-2.061V0h2.061Z"/>
      <path id="패스_5721" data-name="패스 5721" d="M377.2,6.51a4.557,4.557,0,0,0,2.25,1.79l-1.08,1.68a5.255,5.255,0,0,1-2.88-2.9,6.113,6.113,0,0,1-1.25,1.94,5.4,5.4,0,0,1-1.87,1.26l-1.06-1.62a5.062,5.062,0,0,0,2.36-1.97,5.233,5.233,0,0,0,.8-2.81V3.24H371.8V1.46h7.16V3.24h-2.5v.64a4.833,4.833,0,0,0,.75,2.63m8.43,9.85h-11.22V11h2.04v3.62h9.18Zm-3.6-4.28H380.1V6.24h-1.94V4.5h1.94V.36h1.94Zm3.18.38h-1.94V0h1.94Z"/>
      <path id="패스_5722" data-name="패스 5722" d="M393.135,3.62h-4.08V6.38h3.4V8.04h-3.4v3.12q1.479-.021,2.549-.1a20.8,20.8,0,0,0,2.17-.28l.18,1.74a17.6,17.6,0,0,1-2.519.33q-1.242.069-3.26.07h-1.04V1.88h6Zm3.979,12.24h-1.92v-8h-1.939V6.12h1.939V.32h1.92Zm3.361.82h-1.98V0h1.98Z"/>
      <path id="패스_5723" data-name="패스 5723" d="M408.6,1.93A4.8,4.8,0,0,1,410.094,4a8.31,8.31,0,0,1,.54,3.12,8.306,8.306,0,0,1-.54,3.12,4.8,4.8,0,0,1-1.49,2.07,3.434,3.434,0,0,1-2.15.73,3.506,3.506,0,0,1-2.18-.73,4.756,4.756,0,0,1-1.5-2.07,8.307,8.307,0,0,1-.54-3.12,8.311,8.311,0,0,1,.54-3.12,4.756,4.756,0,0,1,1.5-2.07,3.506,3.506,0,0,1,2.18-.73,3.434,3.434,0,0,1,2.15.73m-3.789,2.28a5.885,5.885,0,0,0-.6,2.91,5.885,5.885,0,0,0,.6,2.91,1.782,1.782,0,0,0,3.25,0,5.824,5.824,0,0,0,.609-2.91,5.824,5.824,0,0,0-.609-2.91,1.782,1.782,0,0,0-3.25,0M415.134,16.7h-2.08V0h2.08Z"/>
      <path id="패스_5724" data-name="패스 5724" d="M423.723,6.3a5.577,5.577,0,0,0,2.771,2.22l-1.181,1.66a6.183,6.183,0,0,1-2.149-1.489,6.874,6.874,0,0,1-1.411-2.27,7.448,7.448,0,0,1-1.5,2.429,6.293,6.293,0,0,1-2.32,1.571l-1.139-1.68a5.72,5.72,0,0,0,2.9-2.28,6.345,6.345,0,0,0,1.02-3.52v-2h2.04v2a6.117,6.117,0,0,0,.97,3.359m6.99,10.061h-10.96v-5.2h2.06v3.46h8.9Zm-.36-3.96h-2.04V7.259h-2.88V5.54h2.88V4h-2.88V2.259h2.88V0h2.04Z"/>
      <path id="패스_5725" data-name="패스 5725" d="M443.073,1.2l-5.5,14.3h-2.14l5.5-14.3Z"/>
      <path id="패스_5726" data-name="패스 5726" d="M451.853,10.72a3.726,3.726,0,0,1-2.25-.661,3.979,3.979,0,0,1-1.36-1.75,6.143,6.143,0,0,1-.45-2.369,5.6,5.6,0,0,1,.54-2.49A4.15,4.15,0,0,1,449.9,1.7a4.546,4.546,0,0,1,2.45-.641,4.246,4.246,0,0,1,2.55.771,4.888,4.888,0,0,1,1.63,2.05,6.811,6.811,0,0,1,.56,2.759V9.46a8.849,8.849,0,0,1-.56,3.26,4.979,4.979,0,0,1-1.65,2.23,4.287,4.287,0,0,1-2.63.81,4.456,4.456,0,0,1-2.02-.46,4.047,4.047,0,0,1-1.49-1.241,3.155,3.155,0,0,1-.63-1.679h2.1a2.424,2.424,0,0,0,.679,1.13,2.253,2.253,0,0,0,3.391-.64,7.716,7.716,0,0,0,.59-3.41,3.876,3.876,0,0,1-3.02,1.26m2.72-6.23a2.8,2.8,0,0,0-.92-1.25,2.134,2.134,0,0,0-1.28-.42,2.1,2.1,0,0,0-1.78.85,3.611,3.611,0,0,0-.64,2.23,3.65,3.65,0,0,0,.63,2.18,2.069,2.069,0,0,0,1.79.88,2.622,2.622,0,0,0,1.559-.5,2.654,2.654,0,0,0,.981-1.26V6.46a5.175,5.175,0,0,0-.34-1.97"/>
      <path id="패스_5727" data-name="패스 5727" d="M471.913,14.43a5.42,5.42,0,0,1-3.58,1.07h-5.16V1.2h4.8a5.924,5.924,0,0,1,3.62.951,3.384,3.384,0,0,1,1.26,2.889,3.023,3.023,0,0,1-.55,1.77,3.6,3.6,0,0,1-1.55,1.23,3.028,3.028,0,0,1,1.809,1.2,3.563,3.563,0,0,1,.631,2.1,3.8,3.8,0,0,1-1.28,3.09m-6.48-7.19h2.56a2.992,2.992,0,0,0,1.91-.549,1.872,1.872,0,0,0,.69-1.551,1.931,1.931,0,0,0-.64-1.62,3.208,3.208,0,0,0-1.98-.5h-2.54Zm4.9,2.35a2.561,2.561,0,0,0-1.9-.63h-3v4.72h2.9a2.759,2.759,0,0,0,1.93-.63,2.176,2.176,0,0,0,.69-1.69,2.417,2.417,0,0,0-.62-1.77"/>
      <rect id="사각형_4416" data-name="사각형 4416" width="2.18" height="14.3" transform="translate(475.394 1.2)"/>
      <path id="패스_5728" data-name="패스 5728" d="M485.533,6.861a2.031,2.031,0,0,0-1.5-.521,2.217,2.217,0,0,0-1.45.45,1.381,1.381,0,0,0-.55,1.111h-2.2a2.65,2.65,0,0,1,.54-1.571,3.744,3.744,0,0,1,1.52-1.2,5.363,5.363,0,0,1,2.26-.45,4.47,4.47,0,0,1,2.97.931,3.31,3.31,0,0,1,1.11,2.689v4.8a5.341,5.341,0,0,0,.4,2.24v.16h-2.26a4.78,4.78,0,0,1-.26-1.059,4.069,4.069,0,0,1-1.26.909,3.794,3.794,0,0,1-1.64.35,4.077,4.077,0,0,1-1.87-.41,3.169,3.169,0,0,1-1.27-1.13,2.95,2.95,0,0,1-.46-1.62,2.988,2.988,0,0,1,1.27-2.6,6.054,6.054,0,0,1,3.55-.9h1.62V8.281a1.915,1.915,0,0,0-.52-1.42m-.45,6.649a2.672,2.672,0,0,0,.97-1.01V10.441h-1.38a3.943,3.943,0,0,0-2.14.479,1.548,1.548,0,0,0-.74,1.38,1.529,1.529,0,0,0,.48,1.17,1.853,1.853,0,0,0,1.32.45,2.738,2.738,0,0,0,1.49-.41"/>
      <path id="패스_5729" data-name="패스 5729" d="M496.314,13.41a2.027,2.027,0,0,0,.719-1.391h2.059a3.361,3.361,0,0,1-.63,1.841A4.246,4.246,0,0,1,496.9,15.2a4.556,4.556,0,0,1-2.112.5,4.692,4.692,0,0,1-2.638-.71,4.387,4.387,0,0,1-1.621-1.91,6.494,6.494,0,0,1-.54-2.7V10a6.49,6.49,0,0,1,.54-2.7,4.39,4.39,0,0,1,1.621-1.911,4.67,4.67,0,0,1,2.619-.709,4.73,4.73,0,0,1,2.22.5,3.816,3.816,0,0,1,1.51,1.39,4.083,4.083,0,0,1,.589,2.05h-2.059a2.38,2.38,0,0,0-.67-1.58,2.16,2.16,0,0,0-1.61-.62,2.113,2.113,0,0,0-1.991,1.02,5.064,5.064,0,0,0-.59,2.56v.38a5.052,5.052,0,0,0,.59,2.57,2.12,2.12,0,0,0,1.991,1.01,2.317,2.317,0,0,0,1.561-.55"/>
      <path id="패스_5730" data-name="패스 5730" d="M500.753,1.2h2.16V9.26l.84-1,3.08-3.38h2.641l-4.04,4.42,4.479,6.2h-2.559l-3.34-4.7-1.1,1.12V15.5h-2.16Z"/>
      <path id="패스_5731" data-name="패스 5731" d="M145.79,173.468H77.275l-31.7-31.7.707-.707,31.406,31.406h68.1Z"/>
      <path id="패스_5732" data-name="패스 5732" d="M164.73,167.01h-2.179v3.06h2.08v1.68H159.77v1.62h6.281v1.72h-14.64v-1.72h6.279v-1.62h-4.859v-1.68h2.08v-3.06H152.73v-1.741h12Zm-.319,13.94h-11.2v-4.721h2.08v2.981h9.12Zm-3.92-13.94h-3.54v3.061h3.54Z"/>
      <path id="패스_5733" data-name="패스 5733" d="M181.251,179.269h-14.7V177.49h14.7Zm-1.62-4.279h-11.3v-9.1h11.181v1.76h-9.08v1.9h8.7v1.719h-8.7v2h9.2Z"/>
      <path id="패스_5734" data-name="패스 5734" d="M184.29,168.57a1.231,1.231,0,0,1,.94-.36,1.269,1.269,0,0,1,.951.36,1.241,1.241,0,0,1,.349.9,1.166,1.166,0,0,1-.34.86,1.3,1.3,0,0,1-.96.34,1.274,1.274,0,0,1-.94-.34,1.166,1.166,0,0,1-.34-.86,1.255,1.255,0,0,1,.34-.9m0,6.84a1.231,1.231,0,0,1,.94-.36,1.269,1.269,0,0,1,.951.36,1.242,1.242,0,0,1,.349.9,1.167,1.167,0,0,1-.34.861,1.3,1.3,0,0,1-.96.34,1.274,1.274,0,0,1-.94-.34,1.167,1.167,0,0,1-.34-.861,1.256,1.256,0,0,1,.34-.9"/>
      <path id="패스_5735" data-name="패스 5735" d="M207.73,179.27h-14.7v-1.819h14.7Zm-1.26-11.4h-2.32v5.18h2.26v1.7H194.29v-1.7h2.24v-5.18h-2.3v-1.761h12.24Zm-4.36,0h-3.54v5.18h3.54Z"/>
      <path id="패스_5736" data-name="패스 5736" d="M216.609,172.37H211.13v3.22q2.06-.02,3.74-.14a31.817,31.817,0,0,0,3.44-.44l.16,1.759a32.672,32.672,0,0,1-3.71.46q-1.83.121-4.29.121h-1.42v-6.7h5.46V167.79h-5.481v-1.76h7.58Zm4.981,8.92h-2.061v-16.7h2.061Z"/>
      <path id="패스_5737" data-name="패스 5737" d="M229.06,171.1a4.557,4.557,0,0,0,2.25,1.79l-1.08,1.68a5.249,5.249,0,0,1-2.88-2.9,6.126,6.126,0,0,1-1.25,1.939,5.4,5.4,0,0,1-1.87,1.261l-1.061-1.62a5.058,5.058,0,0,0,2.36-1.97,5.235,5.235,0,0,0,.8-2.81v-.64h-2.68v-1.78h7.161v1.78h-2.5v.64a4.833,4.833,0,0,0,.75,2.63m8.429,9.85H226.27v-5.36h2.04v3.62h9.179Zm-3.6-4.28h-1.941v-5.84H230.01v-1.74h1.939v-4.14h1.941Zm3.179.38h-1.94V164.59h1.94Z"/>
      <path id="패스_5738" data-name="패스 5738" d="M244.989,168.21h-4.08v2.76h3.4v1.66h-3.4v3.12q1.479-.021,2.55-.1a20.555,20.555,0,0,0,2.17-.279l.18,1.739a17.344,17.344,0,0,1-2.52.33q-1.24.07-3.26.071h-1.04V166.47h6Zm3.98,12.24h-1.92v-8h-1.94v-1.74h1.94v-5.8h1.92Zm3.36.82h-1.98V164.59h1.98Z"/>
      <path id="패스_5739" data-name="패스 5739" d="M260.459,166.519a4.8,4.8,0,0,1,1.489,2.071,9.283,9.283,0,0,1,0,6.24,4.776,4.776,0,0,1-1.489,2.069,3.434,3.434,0,0,1-2.15.731,3.5,3.5,0,0,1-2.18-.731,4.731,4.731,0,0,1-1.5-2.069,9.283,9.283,0,0,1,0-6.24,4.749,4.749,0,0,1,1.5-2.071,3.51,3.51,0,0,1,2.18-.729,3.444,3.444,0,0,1,2.15.729m-3.79,2.281a7.345,7.345,0,0,0,0,5.82,1.782,1.782,0,0,0,3.25,0,7.257,7.257,0,0,0,0-5.82,1.782,1.782,0,0,0-3.25,0m10.319,12.49h-2.08v-16.7h2.08Z"/>
      <path id="패스_5740" data-name="패스 5740" d="M275.578,170.889a5.572,5.572,0,0,0,2.771,2.22l-1.181,1.66a6.183,6.183,0,0,1-2.149-1.489,6.874,6.874,0,0,1-1.411-2.27,7.449,7.449,0,0,1-1.5,2.429,6.293,6.293,0,0,1-2.32,1.571l-1.14-1.68a5.718,5.718,0,0,0,2.9-2.28,6.353,6.353,0,0,0,1.02-3.52v-2h2.04v2a6.117,6.117,0,0,0,.97,3.359m6.99,10.061h-10.96v-5.2h2.06v3.46h8.9Zm-.36-3.96h-2.04v-5.141h-2.88V170.13h2.88v-1.54h-2.88v-1.741h2.88V164.59h2.04Z"/>
      <path id="패스_5741" data-name="패스 5741" d="M294.928,165.79l-5.5,14.3h-2.14l5.5-14.3Z"/>
      <path id="패스_5742" data-name="패스 5742" d="M304.888,170.649a3.782,3.782,0,0,1,2.26.66,3.99,3.99,0,0,1,1.37,1.74,6.079,6.079,0,0,1,.45,2.361,5.624,5.624,0,0,1-.54,2.489,4.135,4.135,0,0,1-1.58,1.75,4.589,4.589,0,0,1-2.46.641,4.244,4.244,0,0,1-2.55-.771,4.868,4.868,0,0,1-1.63-2.04,6.729,6.729,0,0,1-.56-2.75v-2.84a8.849,8.849,0,0,1,.56-3.25,4.936,4.936,0,0,1,1.659-2.24,4.333,4.333,0,0,1,2.641-.81,4.465,4.465,0,0,1,2.02.46,4.055,4.055,0,0,1,1.49,1.241,3.183,3.183,0,0,1,.63,1.7h-2.12a2.471,2.471,0,0,0-.67-1.131,1.962,1.962,0,0,0-1.451-.51,2.011,2.011,0,0,0-1.929,1.141,7.628,7.628,0,0,0-.59,3.4,3.807,3.807,0,0,1,3-1.24m-2.71,6.21a2.856,2.856,0,0,0,.93,1.25,2.1,2.1,0,0,0,1.259.421,2.125,2.125,0,0,0,1.79-.851,3.531,3.531,0,0,0,.651-2.21,3.611,3.611,0,0,0-.64-2.179,2.077,2.077,0,0,0-1.78-.88,2.661,2.661,0,0,0-1.56.489,2.726,2.726,0,0,0-1,1.25v.74a5.055,5.055,0,0,0,.35,1.97"/>
      <path id="패스_5743" data-name="패스 5743" d="M322.3,175.35a2.469,2.469,0,0,0-.96-.779,11.42,11.42,0,0,0-1.971-.741,9.936,9.936,0,0,1-3.469-1.68,3.232,3.232,0,0,1-1.21-2.619,3.467,3.467,0,0,1,.63-2.04,4.1,4.1,0,0,1,1.77-1.4,6.418,6.418,0,0,1,2.6-.5,5.986,5.986,0,0,1,2.729.59,4.375,4.375,0,0,1,1.79,1.58,4.014,4.014,0,0,1,.62,2.17h-2.279a2.414,2.414,0,0,0-.721-1.83,3.01,3.01,0,0,0-2.16-.689,3.048,3.048,0,0,0-2.01.58,1.866,1.866,0,0,0-.689,1.5,1.694,1.694,0,0,0,.75,1.389,7.624,7.624,0,0,0,2.41,1.05,8.842,8.842,0,0,1,3.569,1.75,3.557,3.557,0,0,1,1.13,2.731,3.487,3.487,0,0,1-.62,2.059,3.905,3.905,0,0,1-1.769,1.351,7.534,7.534,0,0,1-5.34-.04,4.838,4.838,0,0,1-2.061-1.531,3.868,3.868,0,0,1-.79-2.44h2.261a2.339,2.339,0,0,0,.909,2.011,3.874,3.874,0,0,0,2.351.67,3.339,3.339,0,0,0,2.07-.561,1.815,1.815,0,0,0,.73-1.519,1.928,1.928,0,0,0-.27-1.061"/>
      <path id="패스_5744" data-name="패스 5744" d="M328.427,179.62a4.59,4.59,0,0,1-1.76-1.84,5.563,5.563,0,0,1-.62-2.65,7.217,7.217,0,0,1,.639-3.151,4.784,4.784,0,0,1,1.721-2.019,4.366,4.366,0,0,1,2.4-.691,4.026,4.026,0,0,1,3.35,1.42,5.9,5.9,0,0,1,1.13,3.781v.959h-7.04a3.551,3.551,0,0,0,.87,2.241,2.647,2.647,0,0,0,2.069.88,3.286,3.286,0,0,0,2.721-1.38l1.2,1.1a4.54,4.54,0,0,1-1.58,1.451,4.908,4.908,0,0,1-2.46.57,5.113,5.113,0,0,1-2.639-.67m.7-7.88a3.725,3.725,0,0,0-.84,2.05h4.84v-.181a3.3,3.3,0,0,0-.62-1.859,2.019,2.019,0,0,0-1.72-.74,2.14,2.14,0,0,0-1.66.73"/>
      <path id="패스_5745" data-name="패스 5745" d="M336.986,169.47h2.04l.08,1.14a3.858,3.858,0,0,1,3.1-1.34,3,3,0,0,1,2.98,1.66,3.634,3.634,0,0,1,1.36-1.22,4.126,4.126,0,0,1,1.94-.44,3.458,3.458,0,0,1,2.62.94,4.162,4.162,0,0,1,.9,2.96v6.92h-2.2v-6.94a2.076,2.076,0,0,0-.54-1.55,2.022,2.022,0,0,0-1.48-.529,2.317,2.317,0,0,0-1.58.539,1.8,1.8,0,0,0-.62,1.421v7.059h-2.18v-6.98a2,2,0,0,0-.55-1.52,2.108,2.108,0,0,0-1.51-.519,2.336,2.336,0,0,0-1.54.529,1.759,1.759,0,0,0-.64,1.431v7.059h-2.18Z"/>
      <path id="패스_5746" data-name="패스 5746" d="M354.966,165.8a1.447,1.447,0,0,1,1.84,0,1.233,1.233,0,0,1,0,1.7,1.447,1.447,0,0,1-1.84,0,1.233,1.233,0,0,1,0-1.7m-.18,3.67h2.18v10.62h-2.18Z"/>
      <path id="패스_5747" data-name="패스 5747" d="M368.346,179.02a5.42,5.42,0,0,1-3.58,1.07h-5.16v-14.3h4.8a5.924,5.924,0,0,1,3.62.951,3.384,3.384,0,0,1,1.26,2.889,3.023,3.023,0,0,1-.55,1.77,3.589,3.589,0,0,1-1.55,1.23,3.028,3.028,0,0,1,1.809,1.2,3.563,3.563,0,0,1,.631,2.1,3.8,3.8,0,0,1-1.28,3.09m-6.48-7.19h2.56a2.992,2.992,0,0,0,1.91-.549,1.872,1.872,0,0,0,.69-1.551,1.931,1.931,0,0,0-.64-1.62,3.207,3.207,0,0,0-1.98-.5h-2.54Zm4.9,2.35a2.561,2.561,0,0,0-1.9-.63h-3v4.72h2.9a2.759,2.759,0,0,0,1.93-.63,2.176,2.176,0,0,0,.69-1.69,2.417,2.417,0,0,0-.62-1.77"/>
      <path id="패스_5748" data-name="패스 5748" d="M371.8,171.9a4.565,4.565,0,0,1,1.7-1.93,4.786,4.786,0,0,1,2.61-.7,4.838,4.838,0,0,1,2.62.7,4.541,4.541,0,0,1,1.71,1.93,6.331,6.331,0,0,1,.59,2.77v.22a6.328,6.328,0,0,1-.59,2.77,4.565,4.565,0,0,1-1.7,1.93,4.786,4.786,0,0,1-2.61.7,4.838,4.838,0,0,1-2.62-.7,4.541,4.541,0,0,1-1.71-1.93,6.314,6.314,0,0,1-.59-2.77v-.22a6.317,6.317,0,0,1,.59-2.77m2.29,5.61a2.5,2.5,0,0,0,4.06,0,4.6,4.6,0,0,0,.7-2.62v-.22a4.558,4.558,0,0,0-.71-2.61,2.485,2.485,0,0,0-4.05-.01,4.59,4.59,0,0,0-.7,2.62v.22a4.588,4.588,0,0,0,.7,2.62"/>
      <rect id="사각형_4417" data-name="사각형 4417" width="2.18" height="14.3" transform="translate(382.966 165.79)"/>
      <path id="패스_5749" data-name="패스 5749" d="M387.6,171.849a4.344,4.344,0,0,1,1.449-1.9,3.691,3.691,0,0,1,2.221-.681,3.482,3.482,0,0,1,2.8,1.2v-4.68h2.2v14.3h-1.981l-.1-1.12a3.868,3.868,0,0,1-5.13.62,4.448,4.448,0,0,1-1.46-1.93,7.154,7.154,0,0,1-.511-2.771v-.2a7.3,7.3,0,0,1,.511-2.84m2.29,5.641a2.1,2.1,0,0,0,1.92,1,2.357,2.357,0,0,0,2.26-1.4v-4.68a2.526,2.526,0,0,0-.88-.981,2.466,2.466,0,0,0-1.361-.359,2.12,2.12,0,0,0-1.929,1,4.85,4.85,0,0,0-.63,2.619v.2a4.869,4.869,0,0,0,.62,2.6"/>
    </g>
  </g>
</svg>
