<svg xmlns="http://www.w3.org/2000/svg" xmlns:xlink="http://www.w3.org/1999/xlink" width="236" height="242" viewBox="0 0 236 242">
  <defs>
    <clipPath id="clip-path">
      <rect id="사각형_4544" data-name="사각형 4544" width="236" height="190" fill="none"/>
    </clipPath>
    <clipPath id="clip-path-3">
      <rect id="사각형_4521" data-name="사각형 4521" width="21.32" height="8.687" fill="none"/>
    </clipPath>
    <clipPath id="clip-path-4">
      <rect id="사각형_4522" data-name="사각형 4522" width="121.461" height="48.752" fill="none"/>
    </clipPath>
    <clipPath id="clip-path-5">
      <rect id="사각형_4523" data-name="사각형 4523" width="29.703" height="30.82" fill="none"/>
    </clipPath>
    <clipPath id="clip-path-6">
      <rect id="사각형_4524" data-name="사각형 4524" width="19.939" height="6.789" fill="none"/>
    </clipPath>
    <clipPath id="clip-path-7">
      <rect id="사각형_4525" data-name="사각형 4525" width="16.866" height="5.208" fill="none"/>
    </clipPath>
    <clipPath id="clip-path-8">
      <rect id="사각형_4526" data-name="사각형 4526" width="15.241" height="6.392" fill="none"/>
    </clipPath>
    <clipPath id="clip-path-9">
      <rect id="사각형_4529" data-name="사각형 4529" width="28.277" height="29.341" fill="none"/>
    </clipPath>
    <clipPath id="clip-path-10">
      <rect id="사각형_4530" data-name="사각형 4530" width="16.108" height="6.673" fill="none"/>
    </clipPath>
    <clipPath id="clip-path-11">
      <rect id="사각형_4531" data-name="사각형 4531" width="107.715" height="70.65" fill="none"/>
    </clipPath>
    <clipPath id="clip-path-12">
      <rect id="사각형_4532" data-name="사각형 4532" width="35.956" height="26.658" fill="none"/>
    </clipPath>
    <clipPath id="clip-path-13">
      <rect id="사각형_4536" data-name="사각형 4536" width="46.814" height="11.672" fill="none"/>
    </clipPath>
    <clipPath id="clip-path-14">
      <path id="패스_6120" data-name="패스 6120" d="M876.559,283.814a3.392,3.392,0,0,0,5.564-.283l.146-4.624-5.71-.959Z" transform="translate(-876.559 -277.949)" fill="none"/>
    </clipPath>
    <clipPath id="clip-path-15">
      <rect id="사각형_4538" data-name="사각형 4538" width="6.109" height="5.585" fill="none"/>
    </clipPath>
  </defs>
  <g id="img_twin" transform="translate(-862 -307)">
    <text id="Bootcamp" transform="translate(980 543)" fill="#fff" font-size="26" font-family="Pretendard-Bold, Pretendard" font-weight="700"><tspan x="-62" y="0">Bootcamp</tspan></text>
    <g id="그룹_10776" data-name="그룹 10776" transform="translate(862 307)">
      <g id="그룹_10775" data-name="그룹 10775" clip-path="url(#clip-path)">
        <g id="그룹_10767" data-name="그룹 10767">
          <g id="그룹_10766" data-name="그룹 10766" clip-path="url(#clip-path)">
            <path id="패스_5954" data-name="패스 5954" d="M131.179,359.841H89.857a.858.858,0,0,0-.826,1.011l0,.018a.848.848,0,0,0,.826.727h41.319a1.207,1.207,0,0,1,1.184,1.229V406.01a1.207,1.207,0,0,1-1.184,1.229H83.209a.853.853,0,0,0-.834.755l0,.018a.855.855,0,0,0,.826.983h47.981a2.932,2.932,0,0,0,2.876-2.984V362.825a2.932,2.932,0,0,0-2.876-2.984" transform="translate(-64.762 -280.044)" fill="#fff"/>
            <path id="패스_5955" data-name="패스 5955" d="M734.022,28.342H689.746a1.209,1.209,0,0,1-1.184-1.229V.033C688,.018,687.435.005,686.87,0V27.114a2.934,2.934,0,0,0,2.876,2.984h44.276c-.56-.593.577-1.18,0-1.755" transform="translate(-540.072)" fill="#fff"/>
            <path id="패스_5956" data-name="패스 5956" d="M764.638,430.361H682.167a2.78,2.78,0,0,1-2.724-2.827V390.861a2.78,2.78,0,0,1,2.724-2.827h82.471a2.78,2.78,0,0,1,2.724,2.827v36.674a2.78,2.78,0,0,1-2.724,2.827m-82.471-40.572a1.054,1.054,0,0,0-1.032,1.071v36.674a1.054,1.054,0,0,0,1.032,1.071h82.471a1.054,1.054,0,0,0,1.032-1.071V390.861a1.054,1.054,0,0,0-1.032-1.071Z" transform="translate(-534.233 -301.985)" fill="#fff"/>
            <path id="패스_5957" data-name="패스 5957" d="M623.724,159.316H582.1a2.935,2.935,0,0,1-2.876-2.984V71.074A2.935,2.935,0,0,1,582.1,68.09h41.62a2.935,2.935,0,0,1,2.876,2.984v85.258a2.935,2.935,0,0,1-2.876,2.984M582.1,69.845a1.209,1.209,0,0,0-1.184,1.229v85.258a1.209,1.209,0,0,0,1.184,1.229h41.62a1.209,1.209,0,0,0,1.184-1.229V71.074a1.209,1.209,0,0,0-1.184-1.229Z" transform="translate(-455.436 -52.991)" fill="#fff"/>
            <path id="패스_5958" data-name="패스 5958" d="M888.8,632.572s19.5-41.377,31.836-47.228a1.43,1.43,0,0,1,2.019,1.163c.311,2.55-1.233,8.662-13.5,22.265-18.282,20.272-20.355,23.8-20.355,23.8" transform="translate(-698.849 -455.435)" fill="#33da82"/>
            <path id="패스_5959" data-name="패스 5959" d="M886.208,694.55s24.893-30.217,36.177-31.977a1.09,1.09,0,0,1,1.237,1.134c-.062,2.019-2.171,6.757-15.734,15.7-19.247,12.691-21.681,15.143-21.681,15.143" transform="translate(-696.808 -515.633)" fill="#33da82"/>
            <path id="패스_5960" data-name="패스 5960" d="M888.927,646.757s8.855-32.917,17.038-38.532a.909.909,0,0,1,1.361.419c.656,1.6.667,6.084-6.784,18.155-10.573,17.13-11.614,19.957-11.614,19.957" transform="translate(-698.946 -473.222)" fill="#33da82"/>
            <path id="패스_5961" data-name="패스 5961" d="M226.732,286.794l3.6-6-6.8-8.846-6.442,2.3-7.519-4.311-1.549-6.884-10.836-1.267-2.987,6.353-8.254,2.467-5.787-3.731-8.525,7.054,2.217,6.684-4.155,7.8-6.634,1.608-1.221,11.243,6.123,3.1,2.378,8.565-3.6,6,6.8,8.846,6.442-2.3,7.517,4.311,1.55,6.884,10.835,1.267,2.987-6.353,8.254-2.467,5.787,3.731,8.525-7.054-2.218-6.684,4.156-7.8,6.634-1.608,1.221-11.243-6.123-3.1Zm-24.3,27.114a14.023,14.023,0,0,1-17.439-10,14.7,14.7,0,0,1,9.639-18.094,14.023,14.023,0,0,1,17.438,10,14.7,14.7,0,0,1-9.639,18.094" transform="translate(-127.25 -203.731)" fill="#fff"/>
            <path id="패스_5962" data-name="패스 5962" d="M230.123,738.573c0,8.142-51.515,14.743-115.062,14.743S0,746.715,0,738.573,51.515,723.83,115.062,723.83s115.062,6.6,115.062,14.743" transform="translate(0 -563.316)" fill="#fff"/>
            <path id="패스_5963" data-name="패스 5963" d="M475.384,353.3H358.375a2.9,2.9,0,0,1-2.918-3.078L361.293,228.5a3.256,3.256,0,0,1,3.213-3.078H481.514a2.9,2.9,0,0,1,2.918,3.078L478.6,350.219a3.257,3.257,0,0,1-3.213,3.078" transform="translate(-279.487 -175.434)" fill="#c4d7f2"/>
            <path id="패스_5964" data-name="패스 5964" d="M461.676,338.311h-117.3a2.975,2.975,0,0,1-2.919-3.029V209.2a2.975,2.975,0,0,1,2.919-3.029h117.3A2.975,2.975,0,0,1,464.6,209.2V335.283a2.975,2.975,0,0,1-2.919,3.029" transform="translate(-268.48 -160.448)" fill="#3b82f4"/>
            <path id="패스_5965" data-name="패스 5965" d="M481.883,380.314h-104.1a2.223,2.223,0,0,1-2.181-2.263V272.983a2.224,2.224,0,0,1,2.181-2.263h104.1a2.223,2.223,0,0,1,2.181,2.263V378.051a2.223,2.223,0,0,1-2.181,2.263" transform="translate(-295.332 -210.686)" fill="#fff"/>
            <path id="패스_5966" data-name="패스 5966" d="M576.558,355.265H525.481a3.392,3.392,0,0,1-3.324-3.449V307.355a3.392,3.392,0,0,1,3.324-3.449h51.077a3.392,3.392,0,0,1,3.324,3.449v44.462a3.392,3.392,0,0,1-3.324,3.449m-51.077-49.877a1.934,1.934,0,0,0-1.9,1.967v44.462a1.934,1.934,0,0,0,1.9,1.967h51.077a1.934,1.934,0,0,0,1.9-1.967V307.355a1.934,1.934,0,0,0-1.9-1.967Z" transform="translate(-410.562 -236.513)" fill="#ecf3fe"/>
            <path id="패스_5967" data-name="패스 5967" d="M645.683,604.681h-51.3a2.449,2.449,0,0,1-2.4-2.49V585.74a2.449,2.449,0,0,1,2.4-2.49h51.3a2.449,2.449,0,0,1,2.4,2.49v16.451a2.449,2.449,0,0,1-2.4,2.49m-51.3-19.949a.991.991,0,0,0-.971,1.008v16.451a.991.991,0,0,0,.971,1.008h51.3a.991.991,0,0,0,.971-1.008V585.74a.991.991,0,0,0-.971-1.008Z" transform="translate(-465.464 -453.91)" fill="#ecf3fe"/>
            <path id="패스_5968" data-name="패스 5968" d="M488.916,370.545H459.356a3,3,0,0,1-2.947-3.057V336.815a3,3,0,0,1,2.947-3.057h29.561a3,3,0,0,1,2.947,3.057v30.673a3,3,0,0,1-2.947,3.057" transform="translate(-358.865 -259.745)" fill="#c4d7f2"/>
            <g id="그룹_10735" data-name="그룹 10735" transform="translate(105.344 87.443)" opacity="0.23" style="mix-blend-mode: multiply;isolation: isolate">
              <g id="그룹_10734" data-name="그룹 10734">
                <g id="그룹_10733" data-name="그룹 10733" clip-path="url(#clip-path-3)">
                  <path id="패스_5969" data-name="패스 5969" d="M500.195,397.583l-2.019.129q.309-1.784-.99-1.784-1.491,0-2.032,2.748a3.735,3.735,0,0,0-.018,2.152,1.054,1.054,0,0,0,1.022.565q1.18,0,1.756-1.593l1.822.117a4.4,4.4,0,0,1-1.539,2.3,3.9,3.9,0,0,1-2.377.787,2.691,2.691,0,0,1-2.394-1.155,4.151,4.151,0,0,1-.381-3.192,5.914,5.914,0,0,1,1.591-3.124,3.963,3.963,0,0,1,2.905-1.216q2.928,0,2.654,3.266" transform="translate(-492.909 -394.317)" fill="#003889"/>
                  <path id="패스_5970" data-name="패스 5970" d="M532.779,396.3l-1.729.562a1.054,1.054,0,0,0-1.187-1q-1.128,0-1.277.76a.593.593,0,0,0,.11.512,1.686,1.686,0,0,0,.882.365,7.81,7.81,0,0,1,1.715.526,1.768,1.768,0,0,1,.8.855,2.072,2.072,0,0,1,.136,1.318A3.371,3.371,0,0,1,531,402.172a4.075,4.075,0,0,1-2.676.833,3.192,3.192,0,0,1-2.009-.589,2.209,2.209,0,0,1-.812-1.751l1.843-.414q.065,1.179,1.419,1.179a1.754,1.754,0,0,0,1.025-.263,1,1,0,0,0,.444-.627.547.547,0,0,0-.178-.574,2.838,2.838,0,0,0-1.048-.383,4.049,4.049,0,0,1-2.031-.911,1.823,1.823,0,0,1-.327-1.689,3.2,3.2,0,0,1,1.161-1.9,3.49,3.49,0,0,1,2.289-.771q2.39,0,2.683,1.982" transform="translate(-518.534 -394.318)" fill="#003889"/>
                  <path id="패스_5971" data-name="패스 5971" d="M565.885,396.3l-1.729.562a1.054,1.054,0,0,0-1.187-1q-1.128,0-1.277.76a.593.593,0,0,0,.11.512,1.686,1.686,0,0,0,.882.365,7.808,7.808,0,0,1,1.715.526,1.768,1.768,0,0,1,.8.855,2.071,2.071,0,0,1,.136,1.318,3.37,3.37,0,0,1-1.236,1.975,4.075,4.075,0,0,1-2.676.833,3.192,3.192,0,0,1-2.009-.589,2.209,2.209,0,0,1-.812-1.751l1.843-.414q.065,1.179,1.419,1.179a1.754,1.754,0,0,0,1.025-.263,1,1,0,0,0,.444-.627.547.547,0,0,0-.178-.574,2.838,2.838,0,0,0-1.048-.383,4.049,4.049,0,0,1-2.031-.911,1.823,1.823,0,0,1-.327-1.689,3.2,3.2,0,0,1,1.161-1.9,3.49,3.49,0,0,1,2.289-.771q2.39,0,2.683,1.982" transform="translate(-544.564 -394.318)" fill="#003889"/>
                </g>
              </g>
            </g>
            <path id="패스_5972" data-name="패스 5972" d="M497.3,397.583l-1.993.129q-.042-1.784-1.342-1.784-1.491,0-1.491,2.748a3.975,3.975,0,0,0,.405,2.152,1.315,1.315,0,0,0,1.133.565q1.18,0,1.443-1.593l1.845.117a3.446,3.446,0,0,1-1.086,2.3A3.274,3.274,0,0,1,494,403a3.316,3.316,0,0,1-2.621-1.155,4.688,4.688,0,0,1-1.009-3.192,4.837,4.837,0,0,1,.976-3.124,3.233,3.233,0,0,1,2.666-1.216q2.928,0,3.3,3.266" transform="translate(-385.564 -306.874)" fill="#fff"/>
            <path id="패스_5973" data-name="패스 5973" d="M530.587,396.3l-1.618.562a1.331,1.331,0,0,0-1.383-1q-1.128,0-1.128.76a.7.7,0,0,0,.211.512,2.075,2.075,0,0,0,.954.365,9.2,9.2,0,0,1,1.818.526,2.35,2.35,0,0,1,.972.855,2.313,2.313,0,0,1,.4,1.318,2.678,2.678,0,0,1-.847,1.975,3.443,3.443,0,0,1-2.512.833,3.721,3.721,0,0,1-2.125-.589,2.8,2.8,0,0,1-1.156-1.751l1.761-.414a1.8,1.8,0,0,0,2.625.917.787.787,0,0,0,.321-.627.66.66,0,0,0-.291-.574,3.425,3.425,0,0,0-1.123-.383,5.017,5.017,0,0,1-2.211-.911,2.124,2.124,0,0,1-.66-1.689,2.551,2.551,0,0,1,.788-1.9,3.364,3.364,0,0,1,5.211,1.21" transform="translate(-412.141 -306.875)" fill="#fff"/>
            <path id="패스_5974" data-name="패스 5974" d="M563.693,396.3l-1.619.562a1.331,1.331,0,0,0-1.383-1q-1.128,0-1.128.76a.7.7,0,0,0,.211.512,2.075,2.075,0,0,0,.954.365,9.2,9.2,0,0,1,1.818.526,2.35,2.35,0,0,1,.972.855,2.314,2.314,0,0,1,.4,1.318,2.678,2.678,0,0,1-.847,1.975,3.443,3.443,0,0,1-2.512.833,3.721,3.721,0,0,1-2.125-.589,2.8,2.8,0,0,1-1.156-1.751l1.761-.414a1.8,1.8,0,0,0,2.625.917.787.787,0,0,0,.321-.627.66.66,0,0,0-.291-.574,3.425,3.425,0,0,0-1.123-.383,5.017,5.017,0,0,1-2.211-.911,2.124,2.124,0,0,1-.66-1.689,2.55,2.55,0,0,1,.788-1.9,3.364,3.364,0,0,1,5.211,1.21" transform="translate(-438.172 -306.875)" fill="#fff"/>
            <g id="그룹_10738" data-name="그룹 10738" transform="translate(90.57 29.22)" opacity="0.2" style="mix-blend-mode: multiply;isolation: isolate">
              <g id="그룹_10737" data-name="그룹 10737">
                <g id="그룹_10736" data-name="그룹 10736" clip-path="url(#clip-path-4)">
                  <path id="패스_5975" data-name="패스 5975" d="M543.637,165.6,429.449,131.856a2.194,2.194,0,0,0-2.724,1.573l-2.863,10.428a2.3,2.3,0,0,0,1.516,2.826l114.188,33.749a2.195,2.195,0,0,0,2.724-1.573l2.862-10.428a2.3,2.3,0,0,0-1.516-2.827" transform="translate(-423.778 -131.768)" fill="#003889"/>
                </g>
              </g>
            </g>
            <path id="패스_5976" data-name="패스 5976" d="M535.113,168.47,420.051,138.085a2.3,2.3,0,0,1-1.593-2.781l2.577-10.507a2.2,2.2,0,0,1,2.68-1.653l115.062,30.385a2.3,2.3,0,0,1,1.593,2.781l-2.577,10.508a2.2,2.2,0,0,1-2.68,1.653" transform="translate(-328.972 -95.781)" fill="#f4b545"/>
            <path id="패스_5977" data-name="패스 5977" d="M450.527,153.64a2.76,2.76,0,0,1-3.364,2.074,2.88,2.88,0,0,1-2-3.49,2.76,2.76,0,0,1,3.364-2.074,2.881,2.881,0,0,1,2,3.49" transform="translate(-349.957 -116.784)" fill="#fff"/>
            <path id="패스_5978" data-name="패스 5978" d="M487.235,162.982a2.76,2.76,0,0,1-3.364,2.074,2.88,2.88,0,0,1-2-3.49,2.761,2.761,0,0,1,3.364-2.074,2.881,2.881,0,0,1,2,3.49" transform="translate(-378.819 -124.054)" fill="#fff"/>
            <path id="패스_5979" data-name="패스 5979" d="M523.942,172.324a2.761,2.761,0,0,1-3.364,2.074,2.88,2.88,0,0,1-2-3.49,2.76,2.76,0,0,1,3.364-2.074,2.881,2.881,0,0,1,2,3.49" transform="translate(-407.682 -131.325)" fill="#fff"/>
            <g id="그룹_10741" data-name="그룹 10741" transform="translate(133.108 73.555)" opacity="0.2" style="mix-blend-mode: multiply;isolation: isolate">
              <g id="그룹_10740" data-name="그룹 10740">
                <g id="그룹_10739" data-name="그룹 10739" clip-path="url(#clip-path-5)">
                  <path id="패스_5980" data-name="패스 5980" d="M650.238,333.393l-23.158-1.7a2.487,2.487,0,0,0-2.622,2.362l-1.635,24.028a2.518,2.518,0,0,0,2.276,2.721l23.158,1.7a2.487,2.487,0,0,0,2.622-2.362l1.635-24.029a2.518,2.518,0,0,0-2.276-2.72" transform="translate(-622.818 -331.69)" fill="#003889"/>
                </g>
              </g>
            </g>
            <path id="패스_5981" data-name="패스 5981" d="M644.1,352.927h-23.45a2.383,2.383,0,0,1-2.338-2.425V326.169a2.383,2.383,0,0,1,2.338-2.425H644.1a2.383,2.383,0,0,1,2.337,2.425V350.5a2.382,2.382,0,0,1-2.337,2.425" transform="translate(-486.168 -251.952)" fill="#f4b545"/>
            <g id="그룹_10744" data-name="그룹 10744" transform="translate(136.239 82.989)" opacity="0.23" style="mix-blend-mode: multiply;isolation: isolate">
              <g id="그룹_10743" data-name="그룹 10743">
                <g id="그룹_10742" data-name="그룹 10742" clip-path="url(#clip-path-6)">
                  <path id="패스_5982" data-name="패스 5982" d="M641.572,374.236l-.765,4.771a2.518,2.518,0,0,1-.713,1.518,2.344,2.344,0,0,1-1.626.5,5.269,5.269,0,0,1-1-.1l.208-1.3a4.351,4.351,0,0,0,.757.078.908.908,0,0,0,.463-.105.825.825,0,0,0,.28-.257,1.444,1.444,0,0,0,.161-.529l.733-4.575Z" transform="translate(-637.465 -374.236)" fill="#003889"/>
                  <path id="패스_5983" data-name="패스 5983" d="M658.584,374.236l.945,6.686h-1.622l-.176-1.376h-2.083l-.625,1.376H653.7l3.137-6.686Zm-2.377,4.075h1.365l-.3-2.346Z" transform="translate(-650.229 -374.236)" fill="#003889"/>
                  <path id="패스_5984" data-name="패스 5984" d="M689.951,374.236l-3.018,6.686H685.31l-.863-6.686h1.607l.523,4.78,2.109-4.78Z" transform="translate(-674.406 -374.236)" fill="#003889"/>
                  <path id="패스_5985" data-name="패스 5985" d="M708.369,374.236l.945,6.686h-1.622l-.176-1.376h-2.083l-.625,1.376h-1.323l3.137-6.686Zm-2.377,4.075h1.365l-.3-2.346Z" transform="translate(-689.374 -374.236)" fill="#003889"/>
                </g>
              </g>
            </g>
            <path id="패스_5986" data-name="패스 5986" d="M640.5,374.236v4.771a2.148,2.148,0,0,1-.47,1.518,2.045,2.045,0,0,1-1.546.5,5.525,5.525,0,0,1-1.019-.1v-1.3a4.562,4.562,0,0,0,.769.078.817.817,0,0,0,.446-.105.652.652,0,0,0,.238-.257,1.3,1.3,0,0,0,.076-.529v-4.575Z" transform="translate(-501.226 -291.247)" fill="#fff"/>
            <path id="패스_5987" data-name="패스 5987" d="M657.513,374.236l2.017,6.686h-1.622l-.4-1.376h-2.083l-.4,1.376H653.7l2.065-6.686Zm-1.723,4.075h1.365l-.677-2.346Z" transform="translate(-513.992 -291.247)" fill="#fff"/>
            <path id="패스_5988" data-name="패스 5988" d="M684.935,374.236l-1.947,6.686h-1.622l-1.935-6.686h1.607l1.289,4.78,1.343-4.78Z" transform="translate(-534.223 -291.247)" fill="#fff"/>
            <path id="패스_5989" data-name="패스 5989" d="M707.3,374.236l2.017,6.686h-1.622l-.4-1.376h-2.083l-.4,1.376h-1.324l2.065-6.686Zm-1.723,4.075h1.365l-.677-2.346Z" transform="translate(-553.136 -291.247)" fill="#fff"/>
            <path id="패스_5990" data-name="패스 5990" d="M561.309,500.48H542.834a2.568,2.568,0,0,1-2.519-2.614V482.084a2.568,2.568,0,0,1,2.519-2.614h18.475a2.568,2.568,0,0,1,2.519,2.614v15.782a2.568,2.568,0,0,1-2.519,2.614" transform="translate(-424.839 -373.144)" fill="#d35930"/>
            <g id="그룹_10747" data-name="그룹 10747" transform="translate(119.009 114.701)" opacity="0.23" style="mix-blend-mode: multiply;isolation: isolate">
              <g id="그룹_10746" data-name="그룹 10746">
                <g id="그룹_10745" data-name="그룹 10745" clip-path="url(#clip-path-7)">
                  <path id="패스_5991" data-name="패스 5991" d="M560.53,517.32l-.105,4.812-1.067-.025.043-1.985-1.447-.034-.043,1.985-1.067-.025.105-4.812,1.067.025-.041,1.876,1.448.034.041-1.875Z" transform="translate(-556.844 -517.236)" fill="#003889"/>
                  <path id="패스_5992" data-name="패스 5992" d="M579.6,517.746l-.021.952-1.148-.027-.084,3.86-1.1-.026.084-3.86-1.155-.027.021-.952Z" transform="translate(-572.043 -517.57)" fill="#003889"/>
                  <path id="패스_5993" data-name="패스 5993" d="M595.94,522.936l-1.059-3.951-.086,3.924-.91-.022.105-4.812,1.692.04.751,2.9.919-2.86,1.7.04-.105,4.812-1.094-.026.086-3.924-1.252,3.9Z" transform="translate(-585.969 -517.89)" fill="#003889"/>
                  <path id="패스_5994" data-name="패스 5994" d="M623,522.6l1.845.043-.021.952-2.946-.069.105-4.812,1.1.026Z" transform="translate(-607.981 -518.384)" fill="#003889"/>
                </g>
              </g>
            </g>
            <path id="패스_5995" data-name="패스 5995" d="M559.486,515.988V520.8h-1.067v-1.985h-1.448V520.8H555.9v-4.813h1.067v1.876h1.448v-1.876Z" transform="translate(-437.096 -401.564)" fill="#fff"/>
            <path id="패스_5996" data-name="패스 5996" d="M578.248,515.988v.952H577.1V520.8H576V516.94h-1.155v-.952Z" transform="translate(-451.988 -401.564)" fill="#fff"/>
            <path id="패스_5997" data-name="패스 5997" d="M595.01,520.8l-1.144-3.925V520.8h-.911v-4.813h1.692l.814,2.881.857-2.881h1.7V520.8H596.92v-3.925l-1.167,3.925Z" transform="translate(-466.228 -401.565)" fill="#fff"/>
            <path id="패스_5998" data-name="패스 5998" d="M622.058,519.849H623.9v.952h-2.947v-4.813h1.1Z" transform="translate(-488.246 -401.564)" fill="#fff"/>
            <path id="패스_5999" data-name="패스 5999" d="M560.954,639.245h-20.7a2.1,2.1,0,0,1-2.063-2.141V615.628a2.1,2.1,0,0,1,2.063-2.141h20.7a2.1,2.1,0,0,1,2.063,2.141V637.1a2.1,2.1,0,0,1-2.063,2.141" transform="translate(-423.171 -477.442)" fill="#3b82f4"/>
            <g id="그룹_10750" data-name="그룹 10750" transform="translate(120.113 146.276)" opacity="0.23" style="mix-blend-mode: multiply;isolation: isolate">
              <g id="그룹_10749" data-name="그룹 10749">
                <g id="그룹_10748" data-name="그룹 10748" clip-path="url(#clip-path-8)">
                  <path id="패스_6000" data-name="패스 6000" d="M563.45,663.383l-.084,2.19-1.353-.056.225-5.9,2.24.092a3.1,3.1,0,0,1,1.141.214,1.715,1.715,0,0,1,.687.623,1.737,1.737,0,0,1,.272,1.062,2.265,2.265,0,0,1-.2.844,1.522,1.522,0,0,1-.5.633,1.7,1.7,0,0,1-.6.291,3.719,3.719,0,0,1-.9.041Zm0-1.073.866.036a.867.867,0,0,0,.7-.209.821.821,0,0,0,.221-.536.752.752,0,0,0-.2-.579.954.954,0,0,0-.669-.24l-.862-.036Z" transform="translate(-562.013 -659.621)" fill="#003889"/>
                  <path id="패스_6001" data-name="패스 6001" d="M590.7,660.758l-.226,5.9-1.307-.054.093-2.432-1.773-.073-.093,2.432-1.307-.054.226-5.9,1.307.054-.088,2.3,1.773.073.088-2.3Z" transform="translate(-580.944 -660.365)" fill="#003889"/>
                  <path id="패스_6002" data-name="패스 6002" d="M613.4,665.366l-.084,2.19-1.353-.056.225-5.9,2.24.092a3.094,3.094,0,0,1,1.141.214,1.715,1.715,0,0,1,.687.623,1.737,1.737,0,0,1,.272,1.062,2.265,2.265,0,0,1-.2.844,1.524,1.524,0,0,1-.5.633,1.7,1.7,0,0,1-.6.291,3.717,3.717,0,0,1-.9.041Zm0-1.073.866.036a.866.866,0,0,0,.7-.209.82.82,0,0,0,.221-.536.752.752,0,0,0-.2-.579.955.955,0,0,0-.669-.24l-.862-.035Z" transform="translate(-601.284 -661.164)" fill="#003889"/>
                </g>
              </g>
            </g>
            <path id="패스_6003" data-name="패스 6003" d="M562.308,661.967v2.192h-1.354v-5.9H563.2a3.094,3.094,0,0,1,1.148.166,1.708,1.708,0,0,1,.71.595,1.734,1.734,0,0,1,.312,1.05,2.266,2.266,0,0,1-.167.852,1.53,1.53,0,0,1-.471.653,1.7,1.7,0,0,1-.59.315,3.7,3.7,0,0,1-.894.078Zm-.046-1.072h.867a.869.869,0,0,0,.7-.238.822.822,0,0,0,.2-.545.75.75,0,0,0-.223-.571.95.95,0,0,0-.677-.212h-.862Z" transform="translate(-441.067 -512.285)" fill="#fff"/>
            <path id="패스_6004" data-name="패스 6004" d="M589.441,658.258v5.9h-1.308v-2.434h-1.775v2.434H585.05v-5.9h1.308v2.3h1.775v-2.3Z" transform="translate(-460.013 -512.285)" fill="#fff"/>
            <path id="패스_6005" data-name="패스 6005" d="M612.294,661.967v2.192H610.94v-5.9h2.242a3.094,3.094,0,0,1,1.148.166,1.708,1.708,0,0,1,.71.595,1.735,1.735,0,0,1,.313,1.05,2.266,2.266,0,0,1-.167.852,1.53,1.53,0,0,1-.471.653,1.7,1.7,0,0,1-.59.315,3.7,3.7,0,0,1-.894.078Zm-.046-1.072h.867a.869.869,0,0,0,.7-.238.822.822,0,0,0,.2-.545.75.75,0,0,0-.223-.571.951.951,0,0,0-.677-.212h-.862Z" transform="translate(-480.37 -512.285)" fill="#fff"/>
            <rect id="사각형_4527" data-name="사각형 4527" width="14.208" height="1.482" transform="translate(148.712 161.607)" fill="#ecf3fe"/>
            <rect id="사각형_4528" data-name="사각형 4528" width="13.942" height="1.482" transform="translate(144.394 164.835)" fill="#ecf3fe"/>
            <g id="그룹_10753" data-name="그룹 10753" transform="translate(139.054 105.08)" opacity="0.2" style="mix-blend-mode: multiply;isolation: isolate">
              <g id="그룹_10752" data-name="그룹 10752">
                <g id="그룹_10751" data-name="그룹 10751" clip-path="url(#clip-path-9)">
                  <path id="패스_6006" data-name="패스 6006" d="M676.648,474.966l-22.454-1.109a2.413,2.413,0,0,0-2.488,2.346l-1.069,23.3a2.433,2.433,0,0,0,2.262,2.581l22.454,1.109a2.413,2.413,0,0,0,2.487-2.346l1.069-23.3a2.433,2.433,0,0,0-2.261-2.581" transform="translate(-650.634 -473.854)" fill="#003889"/>
                </g>
              </g>
            </g>
            <path id="패스_6007" data-name="패스 6007" d="M667.886,495.507H644.123a1.769,1.769,0,0,1-1.735-1.8V469.049a1.769,1.769,0,0,1,1.735-1.8h23.763a1.769,1.769,0,0,1,1.735,1.8v24.657a1.769,1.769,0,0,1-1.735,1.8" transform="translate(-505.097 -363.633)" fill="#3b82f4"/>
            <g id="그룹_10756" data-name="그룹 10756" transform="translate(143.1 114.818)" opacity="0.23" style="mix-blend-mode: multiply;isolation: isolate">
              <g id="그룹_10755" data-name="그룹 10755">
                <g id="그룹_10754" data-name="그룹 10754" clip-path="url(#clip-path-10)">
                  <path id="패스_6008" data-name="패스 6008" d="M674.939,520.405l-1.534.02q.034-1.37-.963-1.422-1.144-.059-1.245,2.049a3.06,3.06,0,0,0,.231,1.667,1.014,1.014,0,0,0,.848.478q.906.047,1.166-1.165l1.411.163a2.636,2.636,0,0,1-.918,1.721,2.506,2.506,0,0,1-1.734.516,2.557,2.557,0,0,1-1.968-.99,3.612,3.612,0,0,1-.656-2.489,3.7,3.7,0,0,1,.864-2.358,2.475,2.475,0,0,1,2.09-.827q2.246.116,2.408,2.637" transform="translate(-669.569 -517.764)" fill="#003889"/>
                  <path id="패스_6009" data-name="패스 6009" d="M702.1,524.787l-.05,1.037-1.812-.094-.094,1.947-1-.052.094-1.947-1.812-.094.05-1.037,1.812.094.094-1.951,1,.052-.094,1.951Z" transform="translate(-691.476 -521.598)" fill="#003889"/>
                  <path id="패스_6010" data-name="패스 6010" d="M727.755,526.069l-.05,1.037-1.812-.094-.094,1.947-1-.052.094-1.947-1.812-.094.05-1.037,1.812.094.094-1.951,1,.052-.094,1.951Z" transform="translate(-711.647 -522.595)" fill="#003889"/>
                </g>
              </g>
            </g>
            <path id="패스_6011" data-name="패스 6011" d="M673.779,518.426l-1.531.1q-.032-1.37-1.031-1.371-1.145,0-1.145,2.111a3.053,3.053,0,0,0,.311,1.653,1.01,1.01,0,0,0,.87.434q.907,0,1.108-1.224l1.417.09a2.647,2.647,0,0,1-.834,1.767,2.515,2.515,0,0,1-1.707.6,2.547,2.547,0,0,1-2.013-.887,3.6,3.6,0,0,1-.775-2.452,3.715,3.715,0,0,1,.75-2.4,2.484,2.484,0,0,1,2.048-.934q2.249,0,2.532,2.509" transform="translate(-525.588 -401.509)" fill="#fff"/>
            <path id="패스_6012" data-name="패스 6012" d="M701.05,521.614v1.039h-1.815V524.6h-1v-1.949h-1.815v-1.039h1.815V519.66h1v1.954Z" transform="translate(-547.585 -404.422)" fill="#fff"/>
            <path id="패스_6013" data-name="패스 6013" d="M726.736,521.614v1.039h-1.815V524.6h-1v-1.949H722.11v-1.039h1.815V519.66h1v1.954Z" transform="translate(-567.781 -404.422)" fill="#fff"/>
            <g id="그룹_10759" data-name="그룹 10759" transform="translate(26.788 107.213)" opacity="0.18" style="mix-blend-mode: multiply;isolation: isolate">
              <g id="그룹_10758" data-name="그룹 10758">
                <g id="그룹_10757" data-name="그룹 10757" clip-path="url(#clip-path-11)">
                  <path id="패스_6014" data-name="패스 6014" d="M233.047,486.518l-5.583,64.555a3.393,3.393,0,0,1-3.319,3.048h-96a2.754,2.754,0,0,1-2.791-3.048l5.583-64.555a3.392,3.392,0,0,1,3.319-3.048h96a2.755,2.755,0,0,1,2.792,3.048" transform="translate(-125.343 -483.47)" fill="#003889"/>
                </g>
              </g>
            </g>
            <path id="패스_6015" data-name="패스 6015" d="M217.578,473.841v67.148a3.114,3.114,0,0,1-3.055,3.17h-96a3.114,3.114,0,0,1-3.055-3.17V473.841a3.114,3.114,0,0,1,3.055-3.17h96a3.114,3.114,0,0,1,3.055,3.17" transform="translate(-90.791 -366.296)" fill="#3b82f4"/>
            <path id="패스_6016" data-name="패스 6016" d="M217.578,512.8v60.975a3.114,3.114,0,0,1-3.055,3.17h-96a3.114,3.114,0,0,1-3.055-3.17V512.8Z" transform="translate(-90.791 -399.085)" fill="#fff"/>
            <path id="패스_6017" data-name="패스 6017" d="M225.716,584.967h-86.51a3.459,3.459,0,0,1-3.467-3.443v-52.7h93.445v52.7a3.459,3.459,0,0,1-3.468,3.443m-88.549-54.661v51.219a2,2,0,0,0,2.039,1.96h86.51a2,2,0,0,0,2.039-1.96V530.306Z" transform="translate(-106.728 -411.554)" fill="#ecf3fe"/>
            <path id="패스_6018" data-name="패스 6018" d="M138.6,485.361a1.9,1.9,0,1,1-1.9-1.972,1.938,1.938,0,0,1,1.9,1.972" transform="translate(-105.988 -376.194)" fill="#fff"/>
            <path id="패스_6019" data-name="패스 6019" d="M164.5,485.361a1.9,1.9,0,1,1-1.9-1.972,1.938,1.938,0,0,1,1.9,1.972" transform="translate(-126.353 -376.194)" fill="#fff"/>
            <path id="패스_6020" data-name="패스 6020" d="M190.4,485.361a1.9,1.9,0,1,1-1.9-1.972,1.938,1.938,0,0,1,1.9,1.972" transform="translate(-146.717 -376.194)" fill="#fff"/>
            <g id="그룹_10762" data-name="그룹 10762" transform="translate(17.288 151.737)" opacity="0.18" style="mix-blend-mode: multiply;isolation: isolate">
              <g id="그룹_10761" data-name="그룹 10761">
                <g id="그룹_10760" data-name="그룹 10760" clip-path="url(#clip-path-12)">
                  <path id="패스_6021" data-name="패스 6021" d="M116.849,701.851l-2.193-6.17h-8.644l2.5-7.393-8.007-1.5-1.7,5.035-.236-1.1-1.386-6.472-8.3,2.849,1.838,8.584H86.1l-5.208,6.17h4.261l-1.389,9.055H112.32l1.389-9.055Z" transform="translate(-80.893 -684.247)" fill="#003889"/>
                </g>
              </g>
            </g>
            <path id="패스_6022" data-name="패스 6022" d="M113.281,693.5l-.377.143-7.49,2.835-5.18-14.734,7.867-2.979,2.38,6.767Z" transform="translate(-78.812 -528.247)" fill="#33da82"/>
            <path id="패스_6023" data-name="패스 6023" d="M136.616,717.254l-.377.143c-2.743-.023-6.327-.18-6.327-.18l3.9-7.931Z" transform="translate(-102.147 -551.997)" fill="#1db562"/>
            <path id="패스_6132" data-name="패스 6132" d="M0,0,15.666-.1,15.61,8.285l-15.666.1Z" transform="translate(30.275 168.604) rotate(-79.59)" fill="#33da82"/>
            <rect id="사각형_4534" data-name="사각형 4534" width="13.555" height="15.918" transform="translate(34.964 162.476)" fill="#1a71d8"/>
            <rect id="사각형_4535" data-name="사각형 4535" width="15" height="15.918" transform="translate(19.964 162.476)" fill="#3b82f4"/>
            <path id="패스_6024" data-name="패스 6024" d="M88.474,739.129h-15l4.261-6.451h15Z" transform="translate(-57.771 -570.202)" fill="#c4d7f2"/>
            <path id="패스_6025" data-name="패스 6025" d="M180.292,739.129H166.737l-3.14-6.451h13.555Z" transform="translate(-128.633 -570.202)" fill="#3b82f4"/>
            <path id="패스_6026" data-name="패스 6026" d="M293.2,574.263l2.059-3.437-3.893-5.065-3.688,1.317-4.3-2.468-.887-3.942-6.2-.725-1.711,3.638-4.726,1.413-3.313-2.136-4.881,4.039,1.27,3.827-2.379,4.466-3.8.921c-.349,3.215-.35,3.223-.7,6.438l3.506,1.774,1.361,4.9-2.059,3.438,3.892,5.065,3.689-1.317,4.3,2.468.887,3.942,6.2.726,1.71-3.638,4.726-1.413,3.313,2.136,4.882-4.039-1.27-3.827,2.38-4.466,3.8-.921c.349-3.215.35-3.223.7-6.438l-3.506-1.775Zm-13.912,15.525a8.03,8.03,0,0,1-9.985-5.726,8.419,8.419,0,0,1,5.519-10.36,8.029,8.029,0,0,1,9.985,5.726,8.419,8.419,0,0,1-5.519,10.36" transform="translate(-201.318 -435.771)" fill="#ecf3fe"/>
            <path id="패스_6027" data-name="패스 6027" d="M403.031,672.936l.891-1.487-1.685-2.192-1.6.57-1.863-1.068-.384-1.706-2.685-.314-.74,1.574-2.045.611L391.49,668l-2.112,1.748.549,1.656-1.029,1.933-1.644.4-.3,2.786,1.517.768.589,2.122-.891,1.488,1.685,2.192,1.6-.57,1.863,1.068.384,1.706,2.685.314.74-1.574,2.045-.611,1.434.924,2.112-1.748-.549-1.656,1.03-1.933,1.644-.4.3-2.786-1.517-.768Zm-6.02,6.719a3.475,3.475,0,0,1-4.321-2.478,3.644,3.644,0,0,1,2.389-4.483,3.475,3.475,0,0,1,4.321,2.478,3.644,3.644,0,0,1-2.388,4.484" transform="translate(-304.252 -518.885)" fill="#c4d7f2"/>
            <path id="패스_6028" data-name="패스 6028" d="M460.376,616.087l-3.549,35.366h1.329l.617-6.15h15.211l-.617,6.15h1.328l3.549-35.366c.513-5.112-3.078-9.27-8-9.27a10.316,10.316,0,0,0-9.864,9.27m16.539,0-.385,3.84H461.319l.385-3.84a8.782,8.782,0,0,1,8.4-7.891,6.9,6.9,0,0,1,6.814,7.891m-16.4,11.839.664-6.621h15.211l-.664,6.621Zm15.072,1.378-.664,6.621H459.714l.664-6.621Zm-16.678,14.62.664-6.621h15.211l-.664,6.621Z" transform="translate(-359.194 -472.251)" fill="#acc6e5"/>
            <path id="패스_6029" data-name="패스 6029" d="M490.5,606.817c-4.926,0-8.517,4.158-8,9.27l3.549,35.366h1.328l-.617-6.15h15.211l.617,6.15h1.328l-3.549-35.366a10.316,10.316,0,0,0-9.864-9.27m.138,1.378a8.782,8.782,0,0,1,8.4,7.891l.385,3.84H484.214l-.385-3.84a6.9,6.9,0,0,1,6.813-7.891m-5.626,19.731-.664-6.621h15.211l.664,6.621Zm15.349,1.378.664,6.621H485.819l-.664-6.621Zm-13.744,14.62-.664-6.621h15.211l.664,6.621Z" transform="translate(-379.342 -472.251)" fill="#1f3a6f"/>
            <path id="패스_6030" data-name="패스 6030" d="M897.56,118.236a3.719,3.719,0,1,1-3.716-3.856,3.788,3.788,0,0,1,3.716,3.856" transform="translate(-699.89 -89.015)" fill="#fff"/>
            <path id="패스_6031" data-name="패스 6031" d="M1076.908,431.277a3.719,3.719,0,1,1-3.716-3.856,3.788,3.788,0,0,1,3.716,3.856" transform="translate(-840.908 -332.637)" fill="#fff"/>
            <path id="패스_6032" data-name="패스 6032" d="M105.513,350.913a3.719,3.719,0,1,1-3.716-3.856,3.788,3.788,0,0,1,3.716,3.856" transform="translate(-77.119 -270.095)" fill="#fff"/>
            <path id="패스_6033" data-name="패스 6033" d="M195.124,443.746,179.4,440.04a.231.231,0,0,1-.168-.276l4.1-18.745a.222.222,0,0,1,.266-.174l15.721,3.705a.231.231,0,0,1,.168.276l-4.1,18.745a.222.222,0,0,1-.266.174" transform="translate(-140.924 -327.516)" fill="#003f9a"/>
            <path id="패스_6034" data-name="패스 6034" d="M247.555,694.131l1.035,19.541,4.345-.12,1.957-18.628Z" transform="translate(-194.648 -540.203)" fill="#ffc5c5"/>
            <path id="패스_6035" data-name="패스 6035" d="M229.743,781.706s.474,4.463.72,8.41l-12.4-.264s.044-2.243,1.711-2.947a19.2,19.2,0,0,1,3.757-.947,1.678,1.678,0,0,0,1.336-1.266l.536-2.866Z" transform="translate(-171.455 -608.357)" fill="#7cbb73"/>
            <path id="패스_6036" data-name="패스 6036" d="M321.21,694.131l-1.035,19.541-4.345-.12-1.957-18.628Z" transform="translate(-246.792 -540.203)" fill="#ffc5c5"/>
            <path id="패스_6037" data-name="패스 6037" d="M320.381,781.706s-.474,4.463-.72,8.41l12.4-.264s-.044-2.243-1.711-2.947a19.206,19.206,0,0,0-3.757-.947,1.678,1.678,0,0,1-1.336-1.266l-.536-2.866Z" transform="translate(-251.343 -608.357)" fill="#7cbb73"/>
            <path id="패스_6038" data-name="패스 6038" d="M305.621,355.56c-2.117.153-13.982-13-15.677-15.55s1.652-4.764,2.766-6.173c.892-1.127,6.311,1.019,8.442,1.922a2.734,2.734,0,0,1,1.315,1.183c1.578,2.8,6.749,11.993,7.515,13.568.315,2.918-.682,5.774-4.361,5.051" transform="translate(-227.607 -259.558)" fill="#d35930"/>
            <path id="패스_6039" data-name="패스 6039" d="M359.589,331.829l3.909,1.313-2.376,18.15a3.3,3.3,0,0,1-1.677,2.543,3.1,3.1,0,0,1-3.233-.323,3.443,3.443,0,0,1-1.3-3.716Z" transform="translate(-278.968 -258.244)" fill="#ffc5c5"/>
            <path id="패스_6040" data-name="패스 6040" d="M370.407,303.411a1.1,1.1,0,0,1-.484-.556,43.721,43.721,0,0,1-1.583-4.438c-.284-1.275,1.336.741,1.959,1.815,0,0,.908-5.711,1.44-6.174s.345,3.871.345,3.871,1.155-4.4,1.651-4.544-.292,4.662-.292,4.662,1.592-3.748,2.092-3.605c.635.182-.86,4.2-.86,4.2s1.186-2.233,1.608-2.231-1.638,8.091-2.726,8.172a8.042,8.042,0,0,1-3.15-1.173" transform="translate(-289.593 -228.322)" fill="#ffc5c5"/>
            <path id="패스_6041" data-name="패스 6041" d="M380.457,337.779c-.225.4-.44.652-.626.666a8.037,8.037,0,0,1-3.15-1.172,1.089,1.089,0,0,1-.4-.381,4.185,4.185,0,0,0,2.14.185,7.355,7.355,0,0,0,2.031.7" transform="translate(-295.866 -262.184)" fill="#ffc5c5"/>
            <path id="패스_6042" data-name="패스 6042" d="M237.419,512.854l.465,54.827H248.3l.083-55.173Z" transform="translate(-186.678 -398.856)" fill="#003f9a"/>
            <path id="패스_6043" data-name="패스 6043" d="M309.356,514.379v55.5H300l-2.48-55.5Z" transform="translate(-233.935 -400.312)" fill="#003f9a"/>
            <path id="패스_6044" data-name="패스 6044" d="M258.639,501.889l14.369-.233.141,12.5-15.888.507Z" transform="translate(-202.279 -390.411)" fill="#003f9a"/>
            <path id="패스_6045" data-name="패스 6045" d="M267.252,318.8c1.036-2.173,1.555-3.931-1.648-4.8-5.94-1.609-10.142,0-11.02,1.193a2.721,2.721,0,0,0-.032,3.305l2.91.2s8.754,2.269,9.789.1" transform="translate(-199.717 -243.843)" fill="#d35930"/>
            <path id="패스_6046" data-name="패스 6046" d="M286.975,303.658c-.052,1.529-1.238,4.711-2.062,4.689-.807-.074-3.181-4.134-3.075-4.732l.2-7.88,5.116-.216Z" transform="translate(-221.601 -229.986)" fill="#ffc5c5"/>
            <path id="패스_6047" data-name="패스 6047" d="M264.565,331.218s1.992,6.951,6.158,9.745c3.829-2.725,5.789-9.607,5.789-9.607l-2.015-1-3.571,3.2-4.3-3.2Z" transform="translate(-208.022 -257.096)" fill="#d35930"/>
            <path id="패스_6048" data-name="패스 6048" d="M197.124,341.785c-2.6-.043-12.412,18.739-12.695,21.474-.319,3.083,1.069,5.266,3.492,5.184,1.755-.059,10.962-16.243,10.962-16.243Z" transform="translate(-144.977 -265.992)" fill="#d35930"/>
            <path id="패스_6049" data-name="패스 6049" d="M252.715,351.177l1.962,20.395a3.93,3.93,0,0,1-3.24,4.314,78.515,78.515,0,0,1-22.618.278,3.932,3.932,0,0,1-3.232-4.233l1.606-21.144,2.134-15.678,5-1.7a46.077,46.077,0,0,0,5.934,7.622,32.953,32.953,0,0,0,5.071-7.559l5.852,2.09Z" transform="translate(-177.365 -259.473)" fill="#fdab24"/>
            <path id="패스_6050" data-name="패스 6050" d="M244.911,390.209l6.681.482-.407,6.215-3.575,1.935-3.118-2.71Z" transform="translate(-192.239 -303.677)" fill="#7cbb73"/>
            <path id="패스_6051" data-name="패스 6051" d="M246.456,398.821l2.987,1.656,3.405-1.305-3.413,1.731Z" transform="translate(-193.783 -310.38)" fill="#75aa6b"/>
            <path id="패스_6052" data-name="패스 6052" d="M292.3,377.626l.289,33.1.9-.015-.916-33.066Z" transform="translate(-229.829 -293.885)" fill="#003f9a"/>
            <path id="패스_6053" data-name="패스 6053" d="M196.877,370.856l2.478,1.771,27.015-35.553-1.908-.646Z" transform="translate(-154.8 -261.822)" fill="#003f9a"/>
            <path id="패스_6054" data-name="패스 6054" d="M274.908,252.022a3.664,3.664,0,0,0-3.566.9c-.42-.307-1.327-.268-2.618.885-2.078,1.854-1.1,6.493.715,9.5.419,2.3,2.854,4.012,7.044,1.968,1.521-.742,2.3-3.2,2.85-5.34,1.693-6.544-3.247-7.821-4.425-7.911" transform="translate(-210.374 -196.025)" fill="#063263"/>
            <path id="패스_6055" data-name="패스 6055" d="M282.425,297.5c1.874,2.532,4.56,3.364,5.048,2.591l.153-6.7-5.116.216Z" transform="translate(-222.065 -228.322)" fill="#ff9797"/>
            <path id="패스_6056" data-name="패스 6056" d="M315.208,284.874a1.288,1.288,0,0,0,.8,1.744c.645.181,1.367-.436,1.613-1.378.343-1.317-.055-2.012-.723-2.034-.952-.031-1.442.726-1.688,1.668" transform="translate(-247.784 -220.402)" fill="#ffc5c5"/>
            <path id="패스_6057" data-name="패스 6057" d="M281.752,264.819c.375,3.525-.017,7.94-3.516,8.278a6.068,6.068,0,0,1-6.716-5.508c-.566-4.511,1.343-7.183,4.3-7.522,1.773-.521,5.364-.57,5.929,4.752" transform="translate(-213.413 -202.219)" fill="#ffc5c5"/>
            <path id="패스_6058" data-name="패스 6058" d="M270.425,265.947c2.086.544,1.428-5.387,3.266-5.69-.308-.38-.157-.632-.852-.478-1.669.368-3.256,3.269-2.414,6.169" transform="translate(-212.446 -202.135)" fill="#063263"/>
            <path id="패스_6059" data-name="패스 6059" d="M268.016,283.016c.074.973-.428,1.507-1.094,1.561s-1.266-.69-1.34-1.663c-.1-1.36.412-1.967,1.072-1.861.941.152,1.289.989,1.362,1.963" transform="translate(-208.811 -218.718)" fill="#ffc5c5"/>
            <path id="패스_6060" data-name="패스 6060" d="M280.667,253.907s5.918,1.777,8.332.679-2.393-3.269-3.757-3.487-4.607,1.358-4.576,2.808" transform="translate(-220.683 -195.4)" fill="#063263"/>
            <path id="패스_6061" data-name="패스 6061" d="M309.54,391.721l6.688-.365.325,6.22-3.321,2.373-3.413-2.3Z" transform="translate(-243.385 -304.57)" fill="#7cbb73"/>
            <path id="패스_6062" data-name="패스 6062" d="M310.591,399.941l3.159,1.267,3.227-1.725-3.185,2.15Z" transform="translate(-244.212 -310.895)" fill="#75aa6b"/>
            <path id="패스_6063" data-name="패스 6063" d="M231.573,452.542v3.8H209.787a1.864,1.864,0,0,1-1.829-1.9,1.924,1.924,0,0,1,.536-1.343,1.79,1.79,0,0,1,1.293-.556Z" transform="translate(-163.513 -352.188)" fill="#fe8864"/>
            <path id="패스_6064" data-name="패스 6064" d="M216.513,454.441a3.051,3.051,0,0,0,.6,1.9h-.373a3.529,3.529,0,0,1,0-3.8h.373a3.055,3.055,0,0,0-.6,1.9" transform="translate(-169.986 -352.188)" fill="#2ec0b7"/>
            <path id="패스_6065" data-name="패스 6065" d="M220.822,456.339h-.883a2.92,2.92,0,0,1,0-3.8h.883a2.4,2.4,0,0,0,0,3.8" transform="translate(-172.383 -352.188)" fill="#2ec0b7"/>
            <path id="패스_6066" data-name="패스 6066" d="M243.768,454.441a3.052,3.052,0,0,0,.6,1.9h-.4a3.529,3.529,0,0,1,0-3.8h.4a3.056,3.056,0,0,0-.6,1.9" transform="translate(-191.396 -352.188)" fill="#2ec0b7"/>
            <path id="패스_6067" data-name="패스 6067" d="M248.051,456.339h-.883a2.92,2.92,0,0,1,0-3.8h.883a2.4,2.4,0,0,0,0,3.8" transform="translate(-193.792 -352.188)" fill="#2ec0b7"/>
            <path id="패스_6068" data-name="패스 6068" d="M270.9,454.255v3.037H259.135a1.127,1.127,0,0,1-.688-.235.916.916,0,0,1-.1-.082,1.126,1.126,0,0,1-.181-.215,1.186,1.186,0,0,1-.086-.163,1.054,1.054,0,0,1-.084-.254.464.464,0,0,1-.013-.081.758.758,0,0,1-.011-.1.533.533,0,0,1,0-.072v-.624c0-.035,0-.071,0-.106a1.142,1.142,0,0,1,.07-.318.973.973,0,0,1,.073-.163,1.1,1.1,0,0,1,.236-.306.621.621,0,0,1,.1-.082,1.121,1.121,0,0,1,.684-.232Z" transform="translate(-202.838 -353.521)" fill="#fbf0ef"/>
            <path id="패스_6069" data-name="패스 6069" d="M271.173,457.052v.163H258.321a.973.973,0,0,1,.073-.163Z" transform="translate(-203.113 -355.698)" fill="#f2dbda"/>
            <path id="패스_6070" data-name="패스 6070" d="M271.309,464.814v.163H258.581a1.187,1.187,0,0,1-.086-.163Z" transform="translate(-203.25 -361.738)" fill="#f2dbda"/>
            <path id="패스_6071" data-name="패스 6071" d="M270.9,459.22v.163H257.972v-.057c0-.035,0-.071,0-.106Z" transform="translate(-202.838 -357.385)" fill="#f2dbda"/>
            <path id="패스_6072" data-name="패스 6072" d="M270.9,462.464v.082H257.975a.532.532,0,0,1,0-.072v-.01Z" transform="translate(-202.838 -359.909)" fill="#f2dbda"/>
            <path id="패스_6073" data-name="패스 6073" d="M272.31,455.3v.082H259.768a.618.618,0,0,1,.1-.082Z" transform="translate(-204.25 -354.335)" fill="#f2dbda"/>
            <path id="패스_6074" data-name="패스 6074" d="M272.293,466.52v.082H259.842a.888.888,0,0,1-.1-.082Z" transform="translate(-204.233 -363.066)" fill="#f2dbda"/>
            <path id="패스_6075" data-name="패스 6075" d="M270.952,463.306v.081h-12.9a.461.461,0,0,1-.013-.081Z" transform="translate(-202.892 -360.565)" fill="#f2dbda"/>
            <path id="패스_6076" data-name="패스 6076" d="M222.944,418.791v3.8h16.59a1.864,1.864,0,0,0,1.829-1.9,1.924,1.924,0,0,0-.536-1.343,1.791,1.791,0,0,0-1.293-.556Z" transform="translate(-175.296 -325.921)" fill="#ffb850"/>
            <path id="패스_6077" data-name="패스 6077" d="M222.944,420.5v3.038h16.672a1.128,1.128,0,0,0,.689-.236.888.888,0,0,0,.1-.082,1.133,1.133,0,0,0,.181-.215,1.185,1.185,0,0,0,.086-.163,1.062,1.062,0,0,0,.084-.254.463.463,0,0,0,.013-.081.7.7,0,0,0,.011-.1.533.533,0,0,0,0-.072v-.624c0-.035,0-.071,0-.106a1.149,1.149,0,0,0-.07-.318.99.99,0,0,0-.073-.163,1.1,1.1,0,0,0-.237-.306.629.629,0,0,0-.1-.083,1.121,1.121,0,0,0-.684-.232Z" transform="translate(-175.296 -327.254)" fill="#fbf0ef"/>
            <path id="패스_6078" data-name="패스 6078" d="M222.944,423.3v.163H240.7a.99.99,0,0,0-.073-.163Z" transform="translate(-175.296 -329.431)" fill="#f2dbda"/>
            <path id="패스_6079" data-name="패스 6079" d="M222.944,431.063v.163h17.638a1.179,1.179,0,0,0,.086-.163Z" transform="translate(-175.296 -335.472)" fill="#f2dbda"/>
            <path id="패스_6080" data-name="패스 6080" d="M222.944,425.469v.163h17.835v-.057c0-.035,0-.071,0-.106Z" transform="translate(-175.296 -331.118)" fill="#f2dbda"/>
            <path id="패스_6081" data-name="패스 6081" d="M222.944,428.713v.082h17.832a.533.533,0,0,0,0-.072v-.01Z" transform="translate(-175.296 -333.643)" fill="#f2dbda"/>
            <path id="패스_6082" data-name="패스 6082" d="M222.944,421.55v.082H240.4a.629.629,0,0,0-.1-.082Z" transform="translate(-175.296 -328.068)" fill="#f2dbda"/>
            <path id="패스_6083" data-name="패스 6083" d="M222.944,432.769v.082H240.3a.888.888,0,0,0,.1-.082Z" transform="translate(-175.296 -336.799)" fill="#f2dbda"/>
            <path id="패스_6084" data-name="패스 6084" d="M222.944,429.555v.081h17.808a.459.459,0,0,0,.013-.081Z" transform="translate(-175.296 -334.298)" fill="#f2dbda"/>
            <path id="패스_6085" data-name="패스 6085" d="M233.822,401.668v3.8h-16.59a1.864,1.864,0,0,1-1.829-1.9,1.924,1.924,0,0,1,.536-1.343,1.791,1.791,0,0,1,1.293-.556Z" transform="translate(-169.367 -312.595)" fill="#003f9a"/>
            <path id="패스_6086" data-name="패스 6086" d="M235.97,403.381v3.037H219.3a1.128,1.128,0,0,1-.689-.235.916.916,0,0,1-.1-.082,1.145,1.145,0,0,1-.181-.215,1.207,1.207,0,0,1-.086-.163,1.063,1.063,0,0,1-.084-.254.457.457,0,0,1-.013-.081.7.7,0,0,1-.011-.1.536.536,0,0,1,0-.072v-.624c0-.035,0-.071,0-.106a1.149,1.149,0,0,1,.07-.318.988.988,0,0,1,.073-.163,1.109,1.109,0,0,1,.237-.306.626.626,0,0,1,.1-.082,1.121,1.121,0,0,1,.684-.232Z" transform="translate(-171.515 -313.928)" fill="#fbf0ef"/>
            <path id="패스_6087" data-name="패스 6087" d="M236.244,406.178v.163H218.483a.987.987,0,0,1,.073-.163Z" transform="translate(-171.789 -316.105)" fill="#f2dbda"/>
            <path id="패스_6088" data-name="패스 6088" d="M236.381,413.94v.163H218.743a1.212,1.212,0,0,1-.086-.163Z" transform="translate(-171.926 -322.146)" fill="#f2dbda"/>
            <path id="패스_6089" data-name="패스 6089" d="M235.97,408.346v.163H218.135v-.057c0-.035,0-.071,0-.106Z" transform="translate(-171.515 -317.792)" fill="#f2dbda"/>
            <path id="패스_6090" data-name="패스 6090" d="M235.97,411.59v.082H218.138a.531.531,0,0,1,0-.072v-.01Z" transform="translate(-171.515 -320.317)" fill="#f2dbda"/>
            <path id="패스_6091" data-name="패스 6091" d="M237.383,404.427v.082H219.931a.626.626,0,0,1,.1-.082Z" transform="translate(-172.927 -314.742)" fill="#f2dbda"/>
            <path id="패스_6092" data-name="패스 6092" d="M237.364,415.646v.082H220a.889.889,0,0,1-.1-.082Z" transform="translate(-172.909 -323.474)" fill="#f2dbda"/>
            <path id="패스_6093" data-name="패스 6093" d="M236.024,412.432v.081H218.216a.462.462,0,0,1-.013-.081Z" transform="translate(-171.569 -320.972)" fill="#f2dbda"/>
            <path id="패스_6094" data-name="패스 6094" d="M234.852,439.6H215.091a1.844,1.844,0,0,1,0-3.687h19.761Z" transform="translate(-167.683 -339.247)" fill="#003f9a"/>
            <path id="패스_6095" data-name="패스 6095" d="M274.181,440.526H263.342a.063.063,0,0,1-.062-.064V437.64a.063.063,0,0,1,.062-.065h10.838Z" transform="translate(-207.012 -340.54)" fill="#fbf0ef"/>
            <path id="패스_6096" data-name="패스 6096" d="M274.924,440.184v.163h-10.7a.97.97,0,0,1,.073-.163Z" transform="translate(-207.756 -342.57)" fill="#f2dbda"/>
            <path id="패스_6097" data-name="패스 6097" d="M275.062,447.946v.163H264.487a1.161,1.161,0,0,1-.086-.163Z" transform="translate(-207.893 -348.611)" fill="#f2dbda"/>
            <path id="패스_6098" data-name="패스 6098" d="M274.651,442.352v.163H263.878v-.057c0-.035,0-.071,0-.106Z" transform="translate(-207.482 -344.257)" fill="#f2dbda"/>
            <path id="패스_6099" data-name="패스 6099" d="M274.651,445.6v.082h-10.77a.533.533,0,0,1,0-.072v-.01Z" transform="translate(-207.482 -346.782)" fill="#f2dbda"/>
            <path id="패스_6100" data-name="패스 6100" d="M276.063,438.433v.082H265.674a.627.627,0,0,1,.1-.082Z" transform="translate(-208.894 -341.207)" fill="#f2dbda"/>
            <path id="패스_6101" data-name="패스 6101" d="M276.045,449.652v.082h-10.3a.873.873,0,0,1-.1-.082Z" transform="translate(-208.876 -349.939)" fill="#f2dbda"/>
            <path id="패스_6102" data-name="패스 6102" d="M274.7,446.438v.081H263.959a.461.461,0,0,1-.013-.081Z" transform="translate(-207.536 -347.437)" fill="#f2dbda"/>
            <path id="패스_6103" data-name="패스 6103" d="M206.226,438.379l-14.588-5.142c-2.947.124-3.514,4.26-1.388,6.079l14.508,3.045Z" transform="translate(-148.584 -337.164)" fill="#ffc5c5"/>
            <path id="패스_6104" data-name="패스 6104" d="M258.132,450.3a1.083,1.083,0,0,1,.56-.472,40.032,40.032,0,0,1,4.355-1.408c1.242-.227-.783,1.346-1.85,1.934,0,0,5.244,1.018,5.181,1.736s-3.057.235-3.057.235,2.736.905,2.646,1.431c-.154.906-2.831-.03-2.831-.03s2.326,1.059,2.162,1.57c-.208.648-2.689-.244-2.689-.244s-.061-.014-.049.1c.645.365,2.392,1.027,2.117,1.475-.461.752-7.818-2-7.839-3.128a8.709,8.709,0,0,1,1.294-3.2" transform="translate(-201.947 -348.961)" fill="#ffc5c5"/>
            <g id="그룹_10765" data-name="그룹 10765" transform="translate(171.649 171.905)" opacity="0.1">
              <g id="그룹_10764" data-name="그룹 10764">
                <g id="그룹_10763" data-name="그룹 10763" clip-path="url(#clip-path-13)">
                  <path id="패스_6105" data-name="패스 6105" d="M849.961,781.029c0,3.223-10.479,5.836-23.406,5.836s-23.406-2.613-23.406-5.836,10.479-5.836,23.406-5.836,23.406,2.613,23.406,5.836" transform="translate(-803.148 -775.193)" fill="#1a2d59"/>
                </g>
              </g>
            </g>
            <path id="패스_6106" data-name="패스 6106" d="M946.349,770.5c4.335,4.147,6.557,7.049,4.757,8.122s-9.807,2.266-10.919,0-1.28-6.78-1.28-6.78" transform="translate(-738.244 -599.64)" fill="#354ea0"/>
            <path id="패스_6107" data-name="패스 6107" d="M832.528,770.414s-4.54,5.064-4.425,6.436,11.723,1.968,12.413-.239-.453-6.2-.453-6.2l-2.478-2.091" transform="translate(-651.119 -597.942)" fill="#354ea0"/>
            <path id="패스_6108" data-name="패스 6108" d="M794.776,513.019c.632,2.3.632,3.995.23,4.383s-1.581-1.371-1.581-1.55V513.2" transform="translate(-623.854 -399.253)" fill="#ea9e6a"/>
            <path id="패스_6109" data-name="패스 6109" d="M829.529,438.857c.444,32.318,2.858,62.735,4.122,71.079,1.839.95,7.6.958,7.535,0s1.881-49.733,1.881-49.733,7.211,42.224,9.931,49.733c2.375,1.069,7.266-.825,7.349-1.607s-1.763-61.068-4.575-70.1-18.49-2-18.49-2" transform="translate(-652.242 -337.465)" fill="#1a2d59"/>
            <path id="패스_6110" data-name="패스 6110" d="M843.628,343.39H863.78l-.766-23.294-4.27-8.189L856.1,310.34l-3.8.156-3.733.146-.69-.3-5.655,7.689" transform="translate(-662.22 -241.52)" fill="#fff"/>
            <path id="패스_6111" data-name="패스 6111" d="M878.163,311.01l1.043,1.153s2.5,25.024,2.466,26.038-2.241,4.28-2.985,4.578-3.793-2.727-3.8-4.578,1.778-26.09,1.778-26.09Z" transform="translate(-687.909 -242.041)" fill="#f4b545"/>
            <path id="패스_6112" data-name="패스 6112" d="M797.907,317.552c3.448-7.235,15.126-7.212,15.126-7.212s-3.173,42.67-3.632,42.67-7.509.636-7.509-.716,2.222-24.089,2.222-24.089" transform="translate(-627.379 -241.52)" fill="#354ea0"/>
            <path id="패스_6113" data-name="패스 6113" d="M923.494,348.432c.539,1.83-7.432,4.293-8.045,4.216-.306-.04-1.976-5.457-3.8-13.781q-.358-1.636-.722-3.419a234.952,234.952,0,0,1-3.969-27.719c16.119.91,21.475,12.149,22.207,23.143.035.515-3.553,4.263-3.543,4.775l-5.882-2.8v.007c.029.124.384,1.629.864,3.667.422,1.783.941,3.975,1.428,6,.658,2.757,1.258,5.206,1.461,5.905" transform="translate(-713.124 -239.487)" fill="#354ea0"/>
            <path id="패스_6114" data-name="패스 6114" d="M964.357,386.448c-2.262-3.782-4.4-8.324,2.377-18.037l.276,3,1.34,4.106-3,2.133c-1.459,1.039.664,7.615-.992,8.8" transform="translate(-756.524 -286.713)" fill="#243c7a"/>
            <path id="패스_6115" data-name="패스 6115" d="M959.21,370.438a55.777,55.777,0,0,1-3.125-12.879" transform="translate(-751.751 -278.268)" fill="none" stroke="#243c7a" stroke-linecap="round" stroke-width="0.841"/>
            <path id="패스_6116" data-name="패스 6116" d="M870.631,300.994c-1.054-.04-1.835,1.968-1.971,2.783s2.431,2.6,3.063,1.729,1.168-2.306,1.36-2.286,1.258,2.5,2,2.306a4.623,4.623,0,0,0,2.2-2.663c.076-.795-1.207-1.929-2.05-1.869" transform="translate(-683.006 -234.244)" fill="#eaeaea"/>
            <path id="패스_6117" data-name="패스 6117" d="M882.123,283.532l.146-4.624-5.71-.958v5.865" transform="translate(-689.221 -216.312)" fill="#f3c2a0"/>
            <path id="패스_6118" data-name="패스 6118" d="M882.123,283.531l.146-4.624-5.71-.958v5.865a3.392,3.392,0,0,0,5.564-.283" transform="translate(-689.221 -216.312)" fill="#f3c2a0"/>
          </g>
        </g>
        <g id="그룹_10772" data-name="그룹 10772" transform="translate(187.338 61.637)">
          <g id="그룹_10771" data-name="그룹 10771" clip-path="url(#clip-path-14)">
            <g id="그룹_10770" data-name="그룹 10770" transform="translate(-0.398 0)" style="mix-blend-mode: overlay;isolation: isolate">
              <g id="그룹_10769" data-name="그룹 10769">
                <g id="그룹_10768" data-name="그룹 10768" clip-path="url(#clip-path-15)">
                  <path id="패스_6119" data-name="패스 6119" d="M874.7,280.868s.4,2.75,5.962,2.663c0-5.184.146-4.624.146-4.624l-5.71-.958Z" transform="translate(-874.695 -277.949)" fill="#121112"/>
                </g>
              </g>
            </g>
          </g>
        </g>
        <g id="그룹_10774" data-name="그룹 10774">
          <g id="그룹_10773" data-name="그룹 10773" clip-path="url(#clip-path)">
            <path id="패스_6121" data-name="패스 6121" d="M869.659,235.853s-.315,5.685.252,7.515,1.7,3.333,3.747,3.431,4.409-1.83,4.976-5.293a27.871,27.871,0,0,0,.409-5.783s-5.29-4.738-9.384.131" transform="translate(-683.727 -181.84)" fill="#f3c2a0"/>
            <path id="패스_6122" data-name="패스 6122" d="M861.444,254.344s-1.109-1.372-1.928-.37a1.846,1.846,0,0,0,2.12,2.679c.126-2-.192-2.309-.192-2.309" transform="translate(-675.6 -197.368)" fill="#f3c2a0"/>
            <path id="패스_6123" data-name="패스 6123" d="M911.519,254.344s1.109-1.372,1.928-.37a1.846,1.846,0,0,1-2.12,2.679c-.126-2,.192-2.309.192-2.309" transform="translate(-716.535 -197.368)" fill="#f3c2a0"/>
            <path id="패스_6124" data-name="패스 6124" d="M861.354,221.217l-1.066-1.135a4.238,4.238,0,0,1-1.009-4.049A1.68,1.68,0,0,1,861.1,214.6c.693-3.464,6.557-5.081,9.476-1.661s1.667,5.837.825,7.606l-.912.678-.508-3.529-8.272.675Z" transform="translate(-675.509 -164.242)" fill="#192a55"/>
            <path id="패스_6125" data-name="패스 6125" d="M871.257,240.314s2.914,1.655,4.386,1.459,1.429-1.333.443-1.854c2.52,1.57,3.591.743,3.591.743l-.147-1.416Z" transform="translate(-685.052 -186.192)" fill="#192a55"/>
            <path id="패스_6126" data-name="패스 6126" d="M978.942,341.916c-.62,8.773-2.631,24.962-7.71,23.962s-4.3-9.616-1.734-16.436,5.844-9.621,5.844-9.621Z" transform="translate(-760.714 -264.463)" fill="#354ea0"/>
            <path id="패스_6127" data-name="패스 6127" d="M776.945,336.869c2.529-4.535,12.183.4,8.735,9.7s-7.279,29.018-7.509,29.1S771.812,374,771.812,374s-3.075-22.408,5.133-37.131" transform="translate(-606.417 -260.837)" fill="#354ea0"/>
            <path id="패스_6128" data-name="패스 6128" d="M821.491,374a129.548,129.548,0,0,1,.73-19.665" transform="translate(-645.869 -275.756)" fill="none" stroke="#243c7a" stroke-linecap="round" stroke-width="0.841"/>
            <path id="패스_6129" data-name="패스 6129" d="M994.176,315.224a1.1,1.1,0,0,1-.484-.556,43.734,43.734,0,0,1-1.583-4.438c-.284-1.275,1.336.741,1.959,1.815,0,0,.908-5.711,1.44-6.174s.345,3.871.345,3.871,1.155-4.4,1.651-4.544-.292,4.662-.292,4.662,1.592-3.748,2.092-3.605c.635.182-.86,4.2-.86,4.2s1.186-2.233,1.608-2.231-1.638,8.091-2.725,8.172a8.042,8.042,0,0,1-3.15-1.173" transform="translate(-780.05 -237.516)" fill="#ffc5c5"/>
            <path id="패스_6130" data-name="패스 6130" d="M774.4,535.515h-4.472a1.984,1.984,0,0,1-1.944-2.017v-4.64a1.984,1.984,0,0,1,1.944-2.017H774.4a1.984,1.984,0,0,1,1.944,2.017v4.64a1.984,1.984,0,0,1-1.944,2.017m-4.472-7.833a1.157,1.157,0,0,0-1.133,1.176v4.64a1.156,1.156,0,0,0,1.133,1.176H774.4a1.156,1.156,0,0,0,1.133-1.176v-4.64a1.157,1.157,0,0,0-1.133-1.176Z" transform="translate(-603.851 -410.01)" fill="#1f3a6f"/>
            <rect id="사각형_4539" data-name="사각형 4539" width="22.578" height="15.798" transform="translate(158.282 119.845)" fill="#36588e"/>
            <rect id="사각형_4540" data-name="사각형 4540" width="20.063" height="15.798" transform="translate(158.282 119.845)" fill="#f4b545"/>
            <rect id="사각형_4541" data-name="사각형 4541" width="20.063" height="0.42" transform="translate(158.282 127.765)" fill="#1f3a6f"/>
            <rect id="사각형_4542" data-name="사각형 4542" width="3.175" height="1.998" transform="translate(166.726 128.186)" fill="#1f3a6f"/>
            <path id="패스_6131" data-name="패스 6131" d="M772.023,510.3a6.137,6.137,0,0,0,0,4.9c.7,1.252,3.745,1.67,4.521,1.133s.46-2.147.46-2.147l.153-3.071" transform="translate(-606.628 -397.137)" fill="#f3c2a0"/>
          </g>
        </g>
      </g>
    </g>
  </g>
</svg>
