<svg xmlns="http://www.w3.org/2000/svg" xmlns:xlink="http://www.w3.org/1999/xlink" width="330" height="265" viewBox="0 0 330 265">
  <defs>
    <clipPath id="clip-path">
      <rect id="사각형_4362" data-name="사각형 4362" width="280.527" height="156.027" fill="none"/>
    </clipPath>
    <clipPath id="clip-path-2">
      <rect id="사각형_4357" data-name="사각형 4357" width="328" height="58.834" fill="none"/>
    </clipPath>
  </defs>
  <g id="그룹_10727" data-name="그룹 10727" transform="translate(-1100 -354)">
    <g id="그룹_10670" data-name="그룹 10670" transform="translate(-8125 -3351)">
      <rect id="사각형_4467" data-name="사각형 4467" width="282" height="158" transform="translate(9249 3812)" fill="none"/>
      <g id="그룹_10669" data-name="그룹 10669" transform="translate(9250 3813)">
        <path id="패스_5409" data-name="패스 5409" d="M157.083,38.644l-22.531,1.982V82.1l37.194,11.759V37.3Z" fill="#787878" fill-rule="evenodd"/>
        <rect id="사각형_4358" data-name="사각형 4358" width="7.001" height="7.002" transform="translate(125.849 28.065)" fill="#135495"/>
        <rect id="사각형_4359" data-name="사각형 4359" width="7" height="7" transform="translate(118.85)" fill="#135495"/>
        <rect id="사각형_4360" data-name="사각형 4360" width="7.065" height="7.065" transform="translate(111.785 7)" fill="#135495"/>
        <rect id="사각형_4361" data-name="사각형 4361" width="7" height="7" transform="translate(118.849 14.065)" fill="#135495"/>
        <path id="패스_5410" data-name="패스 5410" d="M163.23,82.867V14.612l-23.378,2.15v4.3h-7v7h7v7h-7v7.065h-7V35.068h-7V68.836Z" fill="#135495" fill-rule="evenodd"/>
        <g id="그룹_10607" data-name="그룹 10607">
          <g id="그룹_10606" data-name="그룹 10606" clip-path="url(#clip-path)">
            <path id="패스_5411" data-name="패스 5411" d="M18,127.177a6.914,6.914,0,0,1-3.02,2.717,10.329,10.329,0,0,1-4.492.926,10.508,10.508,0,0,1-4.538-.926,6.979,6.979,0,0,1-3.05-2.717,8.111,8.111,0,0,1-1.093-4.31V108.419H6.94v14.448a4.133,4.133,0,0,0,.88,2.945,3.56,3.56,0,0,0,2.671.91,3.422,3.422,0,0,0,2.6-.91,4.181,4.181,0,0,0,.865-2.945V108.419H19.08v14.448A8.209,8.209,0,0,1,18,127.177" fill="#135495"/>
            <path id="패스_5412" data-name="패스 5412" d="M33.77,123.414a3.087,3.087,0,0,0-1.169-.956,15.977,15.977,0,0,0-2.534-1.017,16.778,16.778,0,0,1-5.448-2.746,5.269,5.269,0,0,1-1.988-4.295,5.388,5.388,0,0,1,1.062-3.308,6.785,6.785,0,0,1,2.945-2.2,11.249,11.249,0,0,1,4.309-.774,10.18,10.18,0,0,1,4.325.865,6.8,6.8,0,0,1,2.9,2.428,6.328,6.328,0,0,1,1.032,3.566H34.1a2.707,2.707,0,0,0-.8-2.064,3.455,3.455,0,0,0-2.444-.758,3.678,3.678,0,0,0-2.306.637,1.958,1.958,0,0,0-.82,1.609,1.915,1.915,0,0,0,1.017,1.608,12.6,12.6,0,0,0,3.081,1.305,13.918,13.918,0,0,1,5.539,2.884,5.872,5.872,0,0,1,1.806,4.432,5.358,5.358,0,0,1-2.186,4.567,9.764,9.764,0,0,1-5.949,1.624,11.919,11.919,0,0,1-4.416-.82,7.75,7.75,0,0,1-3.369-2.488,6.549,6.549,0,0,1-1.29-4.128h5.13a3.176,3.176,0,0,0,1,2.626,4.623,4.623,0,0,0,2.944.8,3.6,3.6,0,0,0,2.277-.606,1.929,1.929,0,0,0,.759-1.578,2.258,2.258,0,0,0-.3-1.215" fill="#135495"/>
            <path id="패스_5413" data-name="패스 5413" d="M56.928,129.879a13.616,13.616,0,0,1-5.433.941,10.122,10.122,0,0,1-5.114-1.259,8.44,8.44,0,0,1-3.4-3.672,13.021,13.021,0,0,1-1.2-5.844v-1.123a13.333,13.333,0,0,1,1.168-5.827,8.479,8.479,0,0,1,3.293-3.7,9.429,9.429,0,0,1,4.948-1.275q4.248,0,6.4,1.989a8.475,8.475,0,0,1,2.549,5.507H55.2a4.49,4.49,0,0,0-1.153-2.564,3.723,3.723,0,0,0-2.7-.865,3.655,3.655,0,0,0-3.248,1.7,9.135,9.135,0,0,0-1.123,5.009v1.152q0,6.678,4.826,6.678a6.321,6.321,0,0,0,2.033-.258,4.077,4.077,0,0,0,1.214-.652v-3.43H51.252v-3.7h8.924v9.013a9.074,9.074,0,0,1-3.248,2.186" fill="#135495"/>
            <path id="패스_5414" data-name="패스 5414" d="M85.489,129.758H62.513v-3.672h7.618V120.2h4.492v5.889H85.489Zm-1.912-19.182q0,3.369-.2,6.085a49.041,49.041,0,0,1-1.017,6.54l-4.34-.424q.454-2.124.789-4.613l-14.053.85-.546-3.917,14.9-.394.091-2.609H65v-3.582H83.577Z" fill="#135495"/>
            <path id="패스_5415" data-name="패스 5415" d="M100.27,112H92.682v5.19q3.277-.06,5.373-.228a33.492,33.492,0,0,0,4.037-.562l.424,3.613a30.094,30.094,0,0,1-4.7.621q-2.462.138-7.286.137H88.221V108.42H100.27Zm5.615,11.443a4.211,4.211,0,0,1,0,7.572,12.7,12.7,0,0,1-6.4,1.381,12.762,12.762,0,0,1-6.449-1.381,4.223,4.223,0,0,1,0-7.572,12.866,12.866,0,0,1,6.449-1.367,12.807,12.807,0,0,1,6.4,1.367M96.2,125.994a1.289,1.289,0,0,0-1,1.244,1.337,1.337,0,0,0,1.018,1.291,10.152,10.152,0,0,0,3.261.379,10.044,10.044,0,0,0,3.293-.4,1.349,1.349,0,0,0,1.049-1.275,1.3,1.3,0,0,0-1.049-1.244,10.853,10.853,0,0,0-3.293-.365,10.527,10.527,0,0,0-3.277.365m11.959-4.311H103.7V106.569h4.463Z" fill="#135495"/>
            <path id="패스_5416" data-name="패스 5416" d="M127.678,108.556a8.2,8.2,0,0,1,3.475,2.6,6.448,6.448,0,0,1-.8,8.558,9.958,9.958,0,0,1-5.4,2.429v3.7h9.349v3.674H111.258v-3.674h9.226v-3.732a9.841,9.841,0,0,1-5.342-2.413,6.468,6.468,0,0,1-.773-8.544,8.2,8.2,0,0,1,3.46-2.6,12.525,12.525,0,0,1,4.9-.926,12.72,12.72,0,0,1,4.948.926m-8.726,3.673a3.12,3.12,0,0,0-1.412,2.747,3.189,3.189,0,0,0,1.4,2.808,6.627,6.627,0,0,0,3.794.956,6.764,6.764,0,0,0,3.84-.956,3.176,3.176,0,0,0,1.411-2.808,3.109,3.109,0,0,0-1.426-2.747,6.772,6.772,0,0,0-3.825-.956,6.628,6.628,0,0,0-3.778.956" fill="#135495"/>
            <path id="패스_5417" data-name="패스 5417" d="M158.606,123.111H135.629V119.5h22.977ZM156.663,111h-2.852v3.461h2.61v3.49H137.815v-3.49h2.58V111h-2.853v-3.521h19.121ZM156,131.973H138.24v-7.527h4.523v3.946H156ZM149.288,111h-4.4v3.461h4.4Z" fill="#135495"/>
            <path id="패스_5418" data-name="패스 5418" d="M170.776,115.705h1.67v-8.893H176.6v24.4h-4.158V119.287h-1.67v6.92H160.608v-17.18h10.168Zm-6.1,6.95h1.973V112.549h-1.973Zm17.331,9.713h-4.279v-25.8h4.279Z" fill="#135495"/>
            <path id="패스_5419" data-name="패스 5419" d="M197.334,112.244h-7.467v3.49h7.224v3.461h-7.224v3.945a65.216,65.216,0,0,0,8.711-.667l.364,3.612a47.327,47.327,0,0,1-5.129.516q-2.61.12-6.252.121h-2.277V108.571h12.05Zm7.163,3.763h3.4v3.7h-3.4v12.657h-4.492v-25.8H204.5Z" fill="#135495"/>
            <path id="패스_5420" data-name="패스 5420" d="M217.638,116.918a15.1,15.1,0,0,1-7.253,5.616l-2.094-3.218a12.994,12.994,0,0,0,5.008-3.156l-4.007.486-.516-3.552,6.344-.272q.09-.424.212-1.123h-5.524v-3.613h9.986a16.455,16.455,0,0,1-2.156,8.832m12.9,15.207H212.995v-9.713h17.543Zm-13.2-3.582h8.832v-2.55h-8.832Zm13.2-6.981h-4.249v-5.736h-1.365v5.524h-4.159v-14.3h4.159v5.16h1.365V106.6h4.249Z" fill="#135495"/>
            <path id="패스_5421" data-name="패스 5421" d="M247.748,112.123h-2.125v10.683l2.611-.272.273,3.218a50.867,50.867,0,0,1-7.057.864q-3.658.2-8,.2l-.394-3.612,2.428-.029V112.123h-1.761v-3.611h14.023Zm-6.465,10.928V112.123h-1.457v10.988Zm13.355,9.317h-4.432V119.287h-3.065v-3.582h3.065v-9.136h4.432Z" fill="#135495"/>
            <path id="패스_5422" data-name="패스 5422" d="M280.528,129.484H257.491v-3.793h23.037Zm-8.469-16.223a8.182,8.182,0,0,0,2.793,3.1,12.313,12.313,0,0,0,5.068,1.867l-1.942,3.763a13.9,13.9,0,0,1-5.615-2.216,11.284,11.284,0,0,1-3.521-3.946,11.672,11.672,0,0,1-3.552,3.916,14.2,14.2,0,0,1-5.584,2.246l-1.942-3.763a12.009,12.009,0,0,0,5.038-1.9,8.408,8.408,0,0,0,2.792-3.126,8,8,0,0,0,.851-3.536v-1.7h4.764v1.7a8.134,8.134,0,0,0,.85,3.6" fill="#135495"/>
            <path id="패스_5423" data-name="패스 5423" d="M7.188,140.353,2.014,153.807H0l5.175-13.454Z" fill="#787878"/>
            <path id="패스_5424" data-name="패스 5424" d="M13.19,140.353,8.016,153.807H6l5.175-13.454Z" fill="#787878"/>
            <path id="패스_5425" data-name="패스 5425" d="M26.136,148.388H24.217v-1.675H20.66v-1.637h3.557v-1.617H20.83a7.38,7.38,0,0,1-2.343,3.16,11.481,11.481,0,0,1-4.111,1.995l-.791-1.6A9.768,9.768,0,0,0,17.612,145a4.891,4.891,0,0,0,1.656-3.049H14.413v-1.637h6.944a10.03,10.03,0,0,1-.113,1.523h2.973v-2.615h1.919Zm-2.324.518A4.061,4.061,0,0,1,25.6,150a2.419,2.419,0,0,1,.63,1.665,2.477,2.477,0,0,1-.63,1.693,4.021,4.021,0,0,1-1.788,1.1,8.511,8.511,0,0,1-2.681.385,7.114,7.114,0,0,1-3.745-.856,2.618,2.618,0,0,1-1.392-2.324,2.419,2.419,0,0,1,.63-1.665,4.055,4.055,0,0,1,1.8-1.091,8.613,8.613,0,0,1,2.71-.387,8.451,8.451,0,0,1,2.681.387m-5.071,1.617a1.2,1.2,0,0,0,0,2.287,5.785,5.785,0,0,0,2.39.4,5.612,5.612,0,0,0,2.333-.4,1.2,1.2,0,0,0,0-2.287,5.5,5.5,0,0,0-2.333-.4,5.671,5.671,0,0,0-2.39.4" fill="#787878"/>
            <path id="패스_5426" data-name="패스 5426" d="M30.294,145.509a36.59,36.59,0,0,0,6.116-.658l.225,1.674a36.4,36.4,0,0,1-7,.658h-1.3v-7.188h1.957Zm9.352,9.2h-9.8V148.8h9.8Zm-7.9-1.618H37.8v-2.71H31.743Zm7.9-10.462h2.107v1.655H39.646v3.82h-1.9v-8.881h1.9Z" fill="#787878"/>
            <path id="패스_5427" data-name="패스 5427" d="M59.29,149.631H55.959v5.287H53.984v-5.287H50.71v5.287H48.753v-5.287H45.46v-1.638H59.29Zm-4.1-9.408a4.406,4.406,0,0,1,1.929,1.222,2.818,2.818,0,0,1,0,3.688,4.351,4.351,0,0,1-1.929,1.214,9.755,9.755,0,0,1-5.683,0,4.353,4.353,0,0,1-1.928-1.214,2.818,2.818,0,0,1,0-3.688,4.408,4.408,0,0,1,1.928-1.222,9.519,9.519,0,0,1,5.683,0m-5.372,1.693a1.478,1.478,0,0,0,0,2.746,6.828,6.828,0,0,0,5.08,0,1.477,1.477,0,0,0,0-2.746,6.828,6.828,0,0,0-5.08,0" fill="#787878"/>
            <path id="패스_5428" data-name="패스 5428" d="M66.064,140.175a3.55,3.55,0,0,1,1.44,1.27,3.545,3.545,0,0,1,0,3.687,3.505,3.505,0,0,1-1.43,1.262,4.912,4.912,0,0,1-4.112,0,3.557,3.557,0,0,1-1.448-1.262,3.488,3.488,0,0,1,0-3.687,3.619,3.619,0,0,1,1.448-1.27,4.784,4.784,0,0,1,4.1,0m-3.6,1.741a1.715,1.715,0,0,0-.592,1.373,1.744,1.744,0,0,0,.592,1.383,2.59,2.59,0,0,0,3.105,0,1.745,1.745,0,0,0,.593-1.383,1.716,1.716,0,0,0-.593-1.373,2.622,2.622,0,0,0-3.105,0m9.889,10.047H64.183v1.148h8.58v1.6H62.32v-4.272h8.091v-1.072H62.264v-1.6H72.35Zm0-4.836H70.393v-7.9H72.35Z" fill="#787878"/>
            <path id="패스_5429" data-name="패스 5429" d="M75.247,151.925a1.156,1.156,0,0,1,.884-.338,1.22,1.22,0,0,1,.8.254,1.172,1.172,0,0,1,.4.668,2.355,2.355,0,0,1,.094.621,2.816,2.816,0,0,1-.377,1.336,3.641,3.641,0,0,1-.724.94,3.527,3.527,0,0,1-.875.621l-.527-.6a2.53,2.53,0,0,0,1-1.411l.038-.112a1.153,1.153,0,0,1-.762-.368,1.113,1.113,0,0,1-.273-.762,1.188,1.188,0,0,1,.32-.847" fill="#787878"/>
            <path id="패스_5430" data-name="패스 5430" d="M96.021,153.017H82.246v-1.675h5.043v-3.857h1.92v3.857h6.812ZM94.59,142.028q0,2.031-.112,3.632a29.6,29.6,0,0,1-.566,3.8l-1.881-.207a30.427,30.427,0,0,0,.508-3.312l-8.9.526-.263-1.768,9.276-.339q.038-.789.038-2.126H83.846V140.6H94.59Z" fill="#787878"/>
            <path id="패스_5431" data-name="패스 5431" d="M104.582,142.047H99.294v3.914q2.295-.018,3.754-.132a20.719,20.719,0,0,0,2.832-.413l.207,1.655a21.523,21.523,0,0,1-3.086.423q-1.581.1-4.328.1h-1.3v-7.169h7.207Zm3.189,7.527a2.535,2.535,0,0,1,0,4.516,9.321,9.321,0,0,1-7.592,0,2.542,2.542,0,0,1,0-4.516,9.3,9.3,0,0,1,7.592,0m-6.191,1.176a1.171,1.171,0,0,0-.837,1.082,1.205,1.205,0,0,0,.837,1.1,5.917,5.917,0,0,0,2.4.386,5.983,5.983,0,0,0,2.408-.386,1.207,1.207,0,0,0,.846-1.1,1.171,1.171,0,0,0-.837-1.082,8.066,8.066,0,0,0-4.817,0m7.536-2.061h-1.957v-9.465h1.957Z" fill="#787878"/>
            <path id="패스_5432" data-name="패스 5432" d="M124.564,152.96h-13.83v-1.675h13.83Zm-4.064-12.3a4.828,4.828,0,0,1,2.042,1.563,3.807,3.807,0,0,1,.743,2.323,3.9,3.9,0,0,1-.743,2.343,4.752,4.752,0,0,1-2.042,1.58,7.232,7.232,0,0,1-2.879.556,7.049,7.049,0,0,1-2.841-.556,4.769,4.769,0,0,1-2.022-1.58,3.89,3.89,0,0,1-.744-2.343,3.8,3.8,0,0,1,.744-2.323,4.845,4.845,0,0,1,2.022-1.563,7.083,7.083,0,0,1,2.841-.554,7.266,7.266,0,0,1,2.879.554m-5.588,1.854a2.4,2.4,0,0,0-1.054,2.032,2.369,2.369,0,0,0,1.054,2.032,5.308,5.308,0,0,0,5.447,0,2.5,2.5,0,0,0-.01-4.074,4.542,4.542,0,0,0-2.728-.761,4.471,4.471,0,0,0-2.709.771" fill="#787878"/>
            <path id="패스_5433" data-name="패스 5433" d="M138.809,153.111h-13.83v-1.675h5.928v-2.465h-4.29V143.8h8.636v-1.864H126.6v-1.655h10.594v5.1h-8.655v1.938h8.994v1.655h-4.7v2.465h5.983Z" fill="#787878"/>
            <path id="패스_5434" data-name="패스 5434" d="M148.753,140.917a4.044,4.044,0,0,1,1.327,1.619h3.462v-3.312h1.9v15.712h-1.9v-5.908h-3.349a4.313,4.313,0,0,1-1.345,1.815,3.259,3.259,0,0,1-3.952-.037,4.523,4.523,0,0,1-1.373-1.947,8.887,8.887,0,0,1,0-5.872,4.517,4.517,0,0,1,1.373-1.947,3.151,3.151,0,0,1,2-.687,3.189,3.189,0,0,1,1.853.564m-3.35,2.268a7.04,7.04,0,0,0,0,5.475,1.676,1.676,0,0,0,1.5.988,1.694,1.694,0,0,0,1.505-.988,6.914,6.914,0,0,0,0-5.475,1.7,1.7,0,0,0-1.505-.989,1.679,1.679,0,0,0-1.5.989m5.354,2.738a8.969,8.969,0,0,1-.112,1.467h2.9v-3.217h-2.935a10.217,10.217,0,0,1,.15,1.75" fill="#787878"/>
            <path id="패스_5435" data-name="패스 5435" d="M170.815,148.6h-13.83v-1.6h13.83Zm-1.468,5.945H158.622v-4.647h1.957v3.03h8.768Zm-.075-9.314H158.753v-5.437h1.939v3.82h8.58Z" fill="#787878"/>
            <path id="패스_5436" data-name="패스 5436" d="M183.027,142.31h-5.363v7.151q2.259-.018,3.66-.114a23.922,23.922,0,0,0,2.814-.357l.169,1.675a24.113,24.113,0,0,1-3.133.405q-1.608.1-4.15.1h-1.3V140.635h7.3Zm4.366,12.626h-1.957V139.224h1.957Z" fill="#787878"/>
            <path id="패스_5437" data-name="패스 5437" d="M195.229,146.214a7.009,7.009,0,0,0,1.336,2.24,5.717,5.717,0,0,0,2.08,1.5l-1.073,1.6a6.233,6.233,0,0,1-2.258-1.742,8.516,8.516,0,0,1-1.486-2.681,9.765,9.765,0,0,1-1.515,2.918,6.471,6.471,0,0,1-2.267,1.9l-1.11-1.6a5.883,5.883,0,0,0,2.05-1.619,7.72,7.72,0,0,0,1.346-2.4,8.076,8.076,0,0,0,.461-2.662v-1.224H189.5v-1.655h8.543v1.655h-3.275v1.224a7.318,7.318,0,0,0,.461,2.548m6.389,8.7h-1.957V139.225h1.957Z" fill="#787878"/>
            <path id="패스_5438" data-name="패스 5438" d="M210.97,141.745h-5.025v1.111h4.592v1.524h-4.592v1.2q1.882,0,3.134-.064t2.512-.255l.15,1.618a25.635,25.635,0,0,1-2.757.264q-1.363.056-3.81.056h-1.166v-7.075h6.962Zm4.986,10.444H207.94v1h8.487v1.6H206V150.7h8.054v-.941h-8.073v-1.618h9.973Zm0-4.592h-1.9v-3.35h-2.579v-1.6h2.579v-3.425h1.9Z" fill="#787878"/>
            <path id="패스_5439" data-name="패스 5439" d="M229.522,142.254h-8.449v-1.6h3.369v-1.562h1.9v1.562h3.18Zm-2.324.978a3.024,3.024,0,0,1,1.28,1.064,2.723,2.723,0,0,1,.461,1.551,2.675,2.675,0,0,1-.461,1.543,3.105,3.105,0,0,1-1.28,1.064,4.25,4.25,0,0,1-1.834.386,4.041,4.041,0,0,1-1.778-.386,3.126,3.126,0,0,1-1.261-1.064,2.667,2.667,0,0,1-.461-1.543,2.715,2.715,0,0,1,.461-1.551,3.058,3.058,0,0,1,1.251-1.064,4.122,4.122,0,0,1,1.788-.376,4.351,4.351,0,0,1,1.834.376m6.539,11.686H231.8v-3.35h-8.374v-1.637h10.312Zm-9.615-10.123a1.4,1.4,0,0,0,0,2.1,1.835,1.835,0,0,0,1.242.4,1.946,1.946,0,0,0,1.269-.4,1.349,1.349,0,0,0,0-2.1,1.976,1.976,0,0,0-1.269-.4,1.862,1.862,0,0,0-1.242.4m9.615,4.4H231.8v-1.73h-2.183V145.81H231.8v-1.355h-2.164v-1.617H231.8v-3.614h1.938Z" fill="#787878"/>
            <path id="패스_5440" data-name="패스 5440" d="M241.9,144.7a5.189,5.189,0,0,0,2.71,1.975l-1.015,1.6a5.864,5.864,0,0,1-2.164-1.336A6.567,6.567,0,0,1,240,144.851a6.89,6.89,0,0,1-1.468,2.258,5.92,5.92,0,0,1-2.239,1.43l-1.034-1.6a5.362,5.362,0,0,0,2.775-2.1,5.644,5.644,0,0,0,.969-3.189v-1.543h1.957v1.543a5.274,5.274,0,0,0,.94,3.048m6.417,9.917H237.877v-5.043H239.8v3.4h8.524Zm-.414-3.9h-1.939v-11.5h1.939Z" fill="#787878"/>
            <path id="패스_5441" data-name="패스 5441" d="M254.765,149.912a42.609,42.609,0,0,0,4.582-.414l.15,1.486a30.671,30.671,0,0,1-4.525.574q-2.307.123-5.127.123l-.245-1.675q2.746,0,5.165-.094m1.806-9.125a3.748,3.748,0,0,1,1.5,1.363,3.83,3.83,0,0,1,0,3.942,3.765,3.765,0,0,1-1.5,1.355,4.859,4.859,0,0,1-4.253,0,3.831,3.831,0,0,1-1.5-1.355,3.777,3.777,0,0,1,0-3.942,3.8,3.8,0,0,1,1.515-1.363,4.617,4.617,0,0,1,2.126-.49,4.559,4.559,0,0,1,2.117.49m-3.754,1.834a1.881,1.881,0,0,0-.639,1.5,1.912,1.912,0,0,0,.639,1.506,2.659,2.659,0,0,0,3.275,0,1.915,1.915,0,0,0,.639-1.506,1.887,1.887,0,0,0-.639-1.486,2.674,2.674,0,0,0-3.275-.01m9.352,12.315h-1.937V139.224h1.937Z" fill="#787878"/>
            <path id="패스_5442" data-name="패스 5442" d="M273.581,144.86a10.225,10.225,0,0,1-5.354,2.625l-.677-1.638q5.288-1.053,5.682-4.345h-4.873v-1.638h7a6.911,6.911,0,0,1-1.778,5m6.369,7.085h-8.109v1.2h8.523v1.619H269.921v-4.328h8.072v-1.072h-8.129v-1.581H279.95Zm0-4.779h-1.957v-7.941h1.957Z" fill="#787878"/>
          </g>
        </g>
      </g>
    </g>
    <g id="그룹_10681" data-name="그룹 10681" transform="translate(-5410 -2569)">
      <rect id="사각형_4475" data-name="사각형 4475" width="330" height="60" transform="translate(6510 2923)" fill="none"/>
      <g id="그룹_10680" data-name="그룹 10680" transform="translate(6511 2924)">
        <g id="그룹_10604" data-name="그룹 10604" clip-path="url(#clip-path-2)">
          <path id="패스_5375" data-name="패스 5375" d="M65.851,29.985A6.908,6.908,0,0,1,62.835,32.7a10.309,10.309,0,0,1-4.487.926,10.484,10.484,0,0,1-4.533-.926,6.974,6.974,0,0,1-3.046-2.717,8.119,8.119,0,0,1-1.092-4.31V11.227H54.8V25.675a4.132,4.132,0,0,0,.88,2.944,3.548,3.548,0,0,0,2.668.911,3.412,3.412,0,0,0,2.592-.911,4.18,4.18,0,0,0,.864-2.944V11.227h5.123V25.675a8.216,8.216,0,0,1-1.076,4.31" transform="translate(-0.06 0)" fill="#135495"/>
          <path id="패스_5376" data-name="패스 5376" d="M81.624,26.221a3.084,3.084,0,0,0-1.168-.956,15.948,15.948,0,0,0-2.531-1.017A16.751,16.751,0,0,1,72.484,21.5a5.269,5.269,0,0,1-1.986-4.3A5.4,5.4,0,0,1,71.559,13.9,6.783,6.783,0,0,1,74.5,11.7a11.224,11.224,0,0,1,4.3-.774,10.172,10.172,0,0,1,4.32.864,6.807,6.807,0,0,1,2.9,2.429,6.331,6.331,0,0,1,1.031,3.566H81.957a2.708,2.708,0,0,0-.8-2.064,3.449,3.449,0,0,0-2.441-.759,3.67,3.67,0,0,0-2.3.638,1.957,1.957,0,0,0-.819,1.608,1.916,1.916,0,0,0,1.016,1.609,12.574,12.574,0,0,0,3.077,1.305A13.9,13.9,0,0,1,85.216,23a5.873,5.873,0,0,1,1.8,4.431A5.362,5.362,0,0,1,84.837,32,9.75,9.75,0,0,1,78.9,33.627a11.892,11.892,0,0,1-4.411-.82,7.741,7.741,0,0,1-3.365-2.488,6.556,6.556,0,0,1-1.288-4.128h5.124a3.174,3.174,0,0,0,1,2.625,4.607,4.607,0,0,0,2.94.8,3.588,3.588,0,0,0,2.274-.607,1.928,1.928,0,0,0,.758-1.578,2.258,2.258,0,0,0-.3-1.214" transform="translate(-0.084 0)" fill="#135495"/>
          <path id="패스_5377" data-name="패스 5377" d="M104.778,32.686a13.588,13.588,0,0,1-5.426.941,10.1,10.1,0,0,1-5.108-1.259,8.428,8.428,0,0,1-3.395-3.673,13.027,13.027,0,0,1-1.2-5.843V21.729A13.346,13.346,0,0,1,90.818,15.9a8.465,8.465,0,0,1,3.289-3.7,9.409,9.409,0,0,1,4.942-1.275q4.243,0,6.4,1.988a8.487,8.487,0,0,1,2.546,5.508H103.05a4.493,4.493,0,0,0-1.152-2.564,3.717,3.717,0,0,0-2.7-.865,3.649,3.649,0,0,0-3.243,1.7A9.14,9.14,0,0,0,94.835,21.7v1.153q0,6.678,4.82,6.678a6.306,6.306,0,0,0,2.031-.258,4.049,4.049,0,0,0,1.213-.653v-3.43H99.109v-3.7h8.913V30.5a9.072,9.072,0,0,1-3.244,2.186" transform="translate(-0.108 0)" fill="#135495"/>
          <path id="패스_5378" data-name="패스 5378" d="M133.329,32.565H110.381V28.892h7.609V23h4.487v5.888h10.853Zm-1.91-19.183q0,3.369-.2,6.086a49.1,49.1,0,0,1-1.016,6.54l-4.335-.425q.454-2.124.788-4.613l-14.036.85-.545-3.915,14.884-.4.091-2.61H112.867V11.319H131.42Z" transform="translate(-0.133 0)" fill="#135495"/>
          <path id="패스_5379" data-name="패스 5379" d="M148.123,14.809h-7.579V20q3.274-.062,5.367-.229a33.217,33.217,0,0,0,4.032-.561l.423,3.612a29.9,29.9,0,0,1-4.7.622q-2.459.136-7.276.137h-2.3V11.227h12.034Zm5.608,11.442a4.214,4.214,0,0,1,0,7.573,15.609,15.609,0,0,1-12.838,0,4.226,4.226,0,0,1,0-7.573,15.766,15.766,0,0,1,12.838,0m-9.67,2.55a1.288,1.288,0,0,0-1,1.244,1.334,1.334,0,0,0,1.017,1.29,10.1,10.1,0,0,0,3.258.38,10,10,0,0,0,3.289-.4,1.348,1.348,0,0,0,1.047-1.274,1.3,1.3,0,0,0-1.047-1.244,10.8,10.8,0,0,0-3.289-.365,10.475,10.475,0,0,0-3.274.365m11.945-4.311h-4.458V9.376h4.458Z" transform="translate(-0.164 0)" fill="#135495"/>
          <path id="패스_5380" data-name="패스 5380" d="M175.526,11.363a8.2,8.2,0,0,1,3.471,2.6,6.189,6.189,0,0,1,1.258,3.824,6.2,6.2,0,0,1-2.062,4.734,9.944,9.944,0,0,1-5.4,2.429v3.7h9.338v3.673H159.126V28.648h9.215V24.916a9.831,9.831,0,0,1-5.336-2.413,6.2,6.2,0,0,1-2.031-4.72,6.182,6.182,0,0,1,1.258-3.824,8.19,8.19,0,0,1,3.456-2.6,12.5,12.5,0,0,1,4.9-.926,12.691,12.691,0,0,1,4.942.926m-8.715,3.673a3.119,3.119,0,0,0-1.41,2.747,3.19,3.19,0,0,0,1.394,2.808,6.621,6.621,0,0,0,3.789.956,6.758,6.758,0,0,0,3.835-.956,3.177,3.177,0,0,0,1.409-2.808,3.109,3.109,0,0,0-1.424-2.747,6.758,6.758,0,0,0-3.82-.956,6.614,6.614,0,0,0-3.773.956" transform="translate(-0.192 0)" fill="#135495"/>
          <path id="패스_5381" data-name="패스 5381" d="M206.447,25.917H183.5V22.306h22.949Zm-1.942-12.11h-2.849v3.46h2.607v3.491H185.681V17.267h2.576v-3.46h-2.85V10.286h19.1Zm-.666,20.973H186.1V27.253h4.518V31.2h13.217Zm-6.7-20.973h-4.4v3.46h4.4Z" transform="translate(-0.222 0)" fill="#135495"/>
          <path id="패스_5382" data-name="패스 5382" d="M218.633,18.512H220.3V9.618h4.154v24.4H220.3V22.093h-1.667v6.92H208.477V11.834h10.156Zm-6.094,6.95h1.971V15.355h-1.971Zm17.31,9.713h-4.274V9.376h4.274Z" transform="translate(-0.252 0)" fill="#135495"/>
          <path id="패스_5383" data-name="패스 5383" d="M245.187,15.052h-7.458v3.49h7.215V22h-7.215v3.945a65.226,65.226,0,0,0,8.7-.667l.364,3.611a46.719,46.719,0,0,1-5.123.516q-2.607.121-6.245.122h-2.273V11.379h12.035Zm7.154,3.763h3.395v3.7h-3.395V35.175h-4.487V9.376h4.487Z" transform="translate(-0.281 0)" fill="#135495"/>
          <path id="패스_5384" data-name="패스 5384" d="M265.5,19.726a15.091,15.091,0,0,1-7.245,5.616l-2.091-3.218a12.988,12.988,0,0,0,5-3.156l-4,.485-.515-3.551,6.336-.273c.061-.284.131-.657.212-1.123h-5.516V10.894h9.973a16.48,16.48,0,0,1-2.152,8.832m12.883,15.207H260.857V25.22h17.522Zm-13.186-3.582h8.821V28.8h-8.821Zm13.186-6.981h-4.244V18.634h-1.363v5.524h-4.153V9.862h4.153v5.159h1.363V9.407h4.244Z" transform="translate(-0.309 0)" fill="#135495"/>
          <path id="패스_5385" data-name="패스 5385" d="M295.6,14.93h-2.122V25.613l2.608-.272.273,3.217a50.746,50.746,0,0,1-7.048.865q-3.654.2-7.988.2l-.394-3.612,2.425-.03V14.93h-1.759V11.319H295.6Zm-6.457,10.927V14.93h-1.455V25.917Zm13.339,9.318h-4.427V22.093h-3.061V18.512h3.061V9.376h4.427Z" transform="translate(-0.339 0)" fill="#135495"/>
          <path id="패스_5386" data-name="패스 5386" d="M328.368,32.292H305.359V28.5h23.009Zm-8.459-16.223a8.186,8.186,0,0,0,2.79,3.1,12.289,12.289,0,0,0,5.062,1.866l-1.94,3.764a13.874,13.874,0,0,1-5.608-2.216,11.28,11.28,0,0,1-3.517-3.946,11.671,11.671,0,0,1-3.547,3.915,14.166,14.166,0,0,1-5.578,2.247l-1.94-3.764a11.981,11.981,0,0,0,5.032-1.9,8.412,8.412,0,0,0,2.789-3.126,8,8,0,0,0,.85-3.536v-1.7h4.758v1.7a8.142,8.142,0,0,0,.849,3.6" transform="translate(-0.369 0)" fill="#135495"/>
          <path id="패스_5387" data-name="패스 5387" d="M55.048,43.161,49.88,56.615H47.868l5.169-13.454Z" transform="translate(-0.058 0)" fill="#787878"/>
          <path id="패스_5388" data-name="패스 5388" d="M61.05,43.161,55.882,56.615H53.871l5.169-13.454Z" transform="translate(-0.065 0)" fill="#787878"/>
          <path id="패스_5389" data-name="패스 5389" d="M73.989,51.194H72.072V49.52H68.52V47.883h3.552V46.265H68.689a7.376,7.376,0,0,1-2.34,3.161,11.453,11.453,0,0,1-4.106,2l-.79-1.6a9.734,9.734,0,0,0,4.022-2.013,4.883,4.883,0,0,0,1.654-3.048H62.28V43.122h6.936a10.055,10.055,0,0,1-.113,1.524h2.969V42.031h1.917Zm-2.321.518A4.051,4.051,0,0,1,73.453,52.8a2.419,2.419,0,0,1,.629,1.665,2.479,2.479,0,0,1-.629,1.693,4.01,4.01,0,0,1-1.786,1.1,8.491,8.491,0,0,1-2.678.385,7.093,7.093,0,0,1-3.739-.856,2.619,2.619,0,0,1-1.391-2.324,2.419,2.419,0,0,1,.629-1.665,4.05,4.05,0,0,1,1.795-1.092,8.623,8.623,0,0,1,2.707-.386,8.461,8.461,0,0,1,2.678.386M66.6,53.33a1.2,1.2,0,0,0,0,2.287,5.792,5.792,0,0,0,2.387.4,5.616,5.616,0,0,0,2.33-.4,1.2,1.2,0,0,0,0-2.287,5.489,5.489,0,0,0-2.33-.4,5.661,5.661,0,0,0-2.387.4" transform="translate(-0.074 0)" fill="#787878"/>
          <path id="패스_5390" data-name="패스 5390" d="M78.162,48.316a36.3,36.3,0,0,0,6.108-.658l.225,1.675a36.311,36.311,0,0,1-6.991.658h-1.3V42.8h1.956Zm9.34,9.2H77.71V51.609H87.5ZM79.608,55.9H85.66V53.19H79.608ZM87.5,45.437h2.1v1.656H87.5v3.82H85.6V42.032h1.9Z" transform="translate(-0.092 0)" fill="#787878"/>
          <path id="패스_5391" data-name="패스 5391" d="M107.142,52.437h-3.326v5.288h-1.974V52.437h-3.27v5.288H96.618V52.437H93.329V50.8h13.813Zm-4.1-9.408a4.418,4.418,0,0,1,1.927,1.222,2.822,2.822,0,0,1,0,3.689,4.345,4.345,0,0,1-1.927,1.214,9.732,9.732,0,0,1-5.676,0,4.347,4.347,0,0,1-1.926-1.214,2.822,2.822,0,0,1,0-3.689,4.42,4.42,0,0,1,1.926-1.222,9.517,9.517,0,0,1,5.676,0M97.68,44.722a1.479,1.479,0,0,0,0,2.747,6.828,6.828,0,0,0,5.075,0,1.479,1.479,0,0,0,0-2.747,6.828,6.828,0,0,0-5.075,0" transform="translate(-0.113 0)" fill="#787878"/>
          <path id="패스_5392" data-name="패스 5392" d="M113.926,42.982a3.549,3.549,0,0,1,1.437,1.269,3.545,3.545,0,0,1,0,3.688,3.5,3.5,0,0,1-1.427,1.261,4.9,4.9,0,0,1-4.107,0,3.541,3.541,0,0,1-1.447-1.261,3.493,3.493,0,0,1,0-3.688,3.61,3.61,0,0,1,1.447-1.269,4.773,4.773,0,0,1,4.1,0m-3.6,1.74a1.716,1.716,0,0,0-.592,1.374,1.743,1.743,0,0,0,.592,1.383,2.582,2.582,0,0,0,3.1,0,1.746,1.746,0,0,0,.592-1.383,1.719,1.719,0,0,0-.592-1.374,2.619,2.619,0,0,0-3.1,0M120.2,54.77h-8.157v1.148h8.57v1.6H110.186V53.246h8.08V52.173h-8.137v-1.6H120.2Zm0-4.836h-1.955v-7.9H120.2Z" transform="translate(-0.13 0)" fill="#787878"/>
          <path id="패스_5393" data-name="패스 5393" d="M123.115,54.733a1.154,1.154,0,0,1,.883-.339,1.221,1.221,0,0,1,.8.254,1.179,1.179,0,0,1,.4.668,2.37,2.37,0,0,1,.094.621,2.812,2.812,0,0,1-.377,1.336,3.607,3.607,0,0,1-.723.941,3.522,3.522,0,0,1-.874.621l-.526-.6a2.53,2.53,0,0,0,1-1.411l.038-.113a1.147,1.147,0,0,1-.761-.368,1.113,1.113,0,0,1-.273-.761,1.187,1.187,0,0,1,.32-.847" transform="translate(-0.148 0)" fill="#787878"/>
          <path id="패스_5394" data-name="패스 5394" d="M143.872,55.823H130.114V54.149h5.037V50.292h1.918v3.857h6.8Zm-1.429-10.988q0,2.031-.112,3.632a29.63,29.63,0,0,1-.565,3.8l-1.879-.207a30.458,30.458,0,0,0,.507-3.312l-8.889.526-.263-1.768,9.265-.339q.037-.789.038-2.126h-8.833V43.4h10.731Z" transform="translate(-0.157 0)" fill="#787878"/>
          <path id="패스_5395" data-name="패스 5395" d="M152.441,44.854H147.16v3.914q2.292-.02,3.749-.132a20.518,20.518,0,0,0,2.829-.414l.207,1.656a21.615,21.615,0,0,1-3.082.423q-1.579.1-4.323.1h-1.3V43.235h7.2Zm3.186,7.526a2.538,2.538,0,0,1,0,4.517,9.3,9.3,0,0,1-7.584,0,2.545,2.545,0,0,1,0-4.517,9.291,9.291,0,0,1,7.584,0m-6.185,1.177a1.172,1.172,0,0,0-.836,1.082,1.207,1.207,0,0,0,.836,1.1,5.907,5.907,0,0,0,2.4.386,5.969,5.969,0,0,0,2.405-.386,1.208,1.208,0,0,0,.846-1.1,1.172,1.172,0,0,0-.836-1.082,8.05,8.05,0,0,0-4.812,0M156.97,51.5h-1.955V42.031h1.955Z" transform="translate(-0.175 0)" fill="#787878"/>
          <path id="패스_5396" data-name="패스 5396" d="M172.415,55.768H158.6V54.093h13.813Zm-4.059-12.3a4.829,4.829,0,0,1,2.04,1.562,3.815,3.815,0,0,1,.742,2.324A3.9,3.9,0,0,1,170.4,49.7a4.755,4.755,0,0,1-2.04,1.58,7.233,7.233,0,0,1-2.876.556,7.05,7.05,0,0,1-2.838-.556,4.771,4.771,0,0,1-2.02-1.58,3.893,3.893,0,0,1-.743-2.343,3.809,3.809,0,0,1,.743-2.324,4.846,4.846,0,0,1,2.02-1.562,7.05,7.05,0,0,1,2.838-.555,7.233,7.233,0,0,1,2.876.555m-5.581,1.854a2.4,2.4,0,0,0-1.053,2.032,2.37,2.37,0,0,0,1.053,2.032,5.3,5.3,0,0,0,5.44,0,2.5,2.5,0,0,0-.01-4.074,4.533,4.533,0,0,0-2.725-.761,4.457,4.457,0,0,0-2.706.771" transform="translate(-0.191 0)" fill="#787878"/>
          <path id="패스_5397" data-name="패스 5397" d="M186.66,55.918H172.847V54.243h5.921V51.778h-4.285V46.6h8.626V44.74h-8.646V43.085h10.581v5.1H176.4v1.937h8.983v1.656h-4.7v2.465h5.976Z" transform="translate(-0.209 0)" fill="#787878"/>
          <path id="패스_5398" data-name="패스 5398" d="M196.614,43.725a4.04,4.04,0,0,1,1.325,1.618H201.4V42.032h1.9V57.744h-1.9V51.836h-3.345a4.319,4.319,0,0,1-1.343,1.815,3.25,3.25,0,0,1-3.947-.038,4.51,4.51,0,0,1-1.371-1.947,8.894,8.894,0,0,1,0-5.871,4.52,4.52,0,0,1,1.371-1.948,3.149,3.149,0,0,1,2-.686,3.182,3.182,0,0,1,1.851.564m-3.346,2.268a5.631,5.631,0,0,0-.553,2.737,5.635,5.635,0,0,0,.553,2.738,1.676,1.676,0,0,0,1.5.988,1.693,1.693,0,0,0,1.5-.988,5.558,5.558,0,0,0,.564-2.738,5.554,5.554,0,0,0-.564-2.737,1.693,1.693,0,0,0-1.5-.989,1.675,1.675,0,0,0-1.5.989m5.348,2.737A8.983,8.983,0,0,1,198.5,50.2H201.4V46.98h-2.931a10.248,10.248,0,0,1,.15,1.75" transform="translate(-0.23 0)" fill="#787878"/>
          <path id="패스_5399" data-name="패스 5399" d="M218.667,51.4H204.854V49.8h13.813ZM217.2,57.348H206.489V52.7h1.955V55.73H217.2Zm-.075-9.314H206.62V42.6h1.937v3.819h8.57Z" transform="translate(-0.247 0)" fill="#787878"/>
          <path id="패스_5400" data-name="패스 5400" d="M230.887,45.117H225.53v7.151q2.256-.02,3.656-.114A23.866,23.866,0,0,0,232,51.8l.169,1.675a23.886,23.886,0,0,1-3.129.4q-1.606.1-4.144.1h-1.3V43.442h7.292Zm4.36,12.626h-1.955V42.031h1.955Z" transform="translate(-0.27 0)" fill="#787878"/>
          <path id="패스_5401" data-name="패스 5401" d="M243.09,49.021a6.993,6.993,0,0,0,1.334,2.24,5.719,5.719,0,0,0,2.076,1.5l-1.072,1.6a6.215,6.215,0,0,1-2.254-1.742,8.5,8.5,0,0,1-1.485-2.681,9.772,9.772,0,0,1-1.512,2.917,6.456,6.456,0,0,1-2.265,1.9l-1.109-1.6a5.866,5.866,0,0,0,2.049-1.618,7.732,7.732,0,0,0,1.343-2.4,8.09,8.09,0,0,0,.46-2.663V45.249h-3.289V43.593H245.9v1.656h-3.27v1.223a7.309,7.309,0,0,0,.46,2.549m6.38,8.7h-1.955V42.032h1.955Z" transform="translate(-0.286 0)" fill="#787878"/>
          <path id="패스_5402" data-name="패스 5402" d="M258.83,44.553h-5.019v1.111H258.4v1.523h-4.586v1.2q1.88,0,3.13-.065t2.509-.254l.15,1.618a25.854,25.854,0,0,1-2.754.264q-1.362.056-3.805.056h-1.165V42.935h6.954ZM263.81,55H255.8v1h8.477v1.6H253.868V53.51h8.044v-.941h-8.063V50.951h9.961Zm0-4.592h-1.9v-3.35h-2.575v-1.6h2.575V42.032h1.9Z" transform="translate(-0.304 0)" fill="#787878"/>
          <path id="패스_5403" data-name="패스 5403" d="M277.38,45.061h-8.439v-1.6h3.365V41.9h1.9v1.562h3.176Zm-2.321.978a3.015,3.015,0,0,1,1.278,1.064,2.725,2.725,0,0,1,.46,1.551,2.679,2.679,0,0,1-.46,1.543,3.1,3.1,0,0,1-1.278,1.064,4.241,4.241,0,0,1-1.832.386,4.032,4.032,0,0,1-1.776-.386,3.123,3.123,0,0,1-1.26-1.064,2.672,2.672,0,0,1-.46-1.543,2.718,2.718,0,0,1,.46-1.551,3.048,3.048,0,0,1,1.25-1.064,4.1,4.1,0,0,1,1.786-.376,4.326,4.326,0,0,1,1.832.376m6.531,11.686h-1.936v-3.35h-8.363V52.737h10.3Zm-9.6-10.124a1.4,1.4,0,0,0,0,2.1,1.831,1.831,0,0,0,1.241.4,1.942,1.942,0,0,0,1.267-.4,1.351,1.351,0,0,0,0-2.1,1.971,1.971,0,0,0-1.267-.4,1.858,1.858,0,0,0-1.241.4m9.6,4.4h-1.936V50.273h-2.18V48.617h2.18V47.262h-2.161V45.644h2.161V42.031h1.936Z" transform="translate(-0.325 0)" fill="#787878"/>
          <path id="패스_5404" data-name="패스 5404" d="M289.764,47.507a5.184,5.184,0,0,0,2.707,1.975l-1.015,1.6a5.856,5.856,0,0,1-2.161-1.336,6.588,6.588,0,0,1-1.429-2.089,6.854,6.854,0,0,1-1.466,2.258,5.9,5.9,0,0,1-2.236,1.431l-1.033-1.6a5.366,5.366,0,0,0,2.772-2.1,5.652,5.652,0,0,0,.968-3.19V42.915h1.955v1.543a5.283,5.283,0,0,0,.94,3.049m6.409,9.916H285.742V52.38h1.917v3.406h8.515Zm-.414-3.9h-1.937v-11.5h1.937Z" transform="translate(-0.342 0)" fill="#787878"/>
          <path id="패스_5405" data-name="패스 5405" d="M302.627,52.719a42.51,42.51,0,0,0,4.576-.414l.15,1.486a30.6,30.6,0,0,1-4.52.574q-2.3.123-5.121.122l-.245-1.674q2.743,0,5.159-.094m1.8-9.126a3.756,3.756,0,0,1,1.5,1.364,3.834,3.834,0,0,1,0,3.942,3.771,3.771,0,0,1-1.5,1.355,4.855,4.855,0,0,1-4.247,0,3.821,3.821,0,0,1-1.5-1.355,3.775,3.775,0,0,1,0-3.942,3.8,3.8,0,0,1,1.512-1.364,4.606,4.606,0,0,1,2.123-.489,4.543,4.543,0,0,1,2.114.489m-3.748,1.835a1.878,1.878,0,0,0-.639,1.5,1.907,1.907,0,0,0,.639,1.505,2.652,2.652,0,0,0,3.27,0,2.071,2.071,0,0,0,0-2.993,2.667,2.667,0,0,0-3.27-.008m9.34,12.315h-1.935V42.031h1.935Z" transform="translate(-0.359 0)" fill="#787878"/>
          <path id="패스_5406" data-name="패스 5406" d="M321.442,47.667a10.2,10.2,0,0,1-5.347,2.625l-.677-1.638q5.281-1.053,5.676-4.346h-4.867V42.671h6.992a6.916,6.916,0,0,1-1.777,5m6.361,7.084h-8.1v1.2h8.513v1.618h-10.43V53.246h8.062V52.173h-8.119v-1.58H327.8Zm0-4.779h-1.955v-7.94H327.8Z" transform="translate(-0.381 0)" fill="#787878"/>
          <path id="패스_5407" data-name="패스 5407" d="M28.069,23.96,14.117,25.189V50.9L37.149,58.2V23.124Z" transform="translate(-0.017 0)" fill="#787878" fill-rule="evenodd"/>
          <rect id="사각형_4353" data-name="사각형 4353" width="4.335" height="4.341" transform="translate(8.71 17.4)" fill="#135495"/>
          <rect id="사각형_4354" data-name="사각형 4354" width="4.335" height="4.34" transform="translate(4.375)" fill="#135495"/>
          <rect id="사각형_4355" data-name="사각형 4355" width="4.375" height="4.381" transform="translate(0 4.339)" fill="#135495"/>
          <rect id="사각형_4356" data-name="사각형 4356" width="4.335" height="4.34" transform="translate(4.375 8.72)" fill="#135495"/>
          <path id="패스_5408" data-name="패스 5408" d="M31.863,51.378V9.06L17.386,10.393v2.668H13.051V17.4h4.336v4.341H13.051v4.381H8.715V21.742H4.38V42.679Z" transform="translate(-0.005 0)" fill="#135495" fill-rule="evenodd"/>
        </g>
      </g>
    </g>
  </g>
</svg>
